<svg id="SvgjsSvg1024" xmlns="http://www.w3.org/2000/svg" version="1.1" xmlns:xlink="http://www.w3.org/1999/xlink" xmlns:svgjs="http://svgjs.com/svgjs" width="275" height="54">
  <path id="SvgjsPath1026" d="M799.215 1448.17L802.152 1441.7L804.416 1436.66C804.734 1435.8500000000001 805.3240000000001 1435.44 806.1800000000001 1435.4C807.4430000000001 1435.4 808.706 1435.4 809.9680000000001 1435.4C810.5200000000001 1435.38 810.9050000000001 1435.5400000000002 810.917 1436.1100000000001C810.918 1442.0800000000002 810.917 1448.0400000000002 810.917 1454.0100000000002C810.918 1455.7900000000002 810.965 1455.63 809.316 1455.63L806.394 1455.63L806.394 1444.3100000000002L806.345 1442.4800000000002L806.345 1442.4900000000002L806.299 1442.4800000000002L801.227 1454.0100000000002C800.5 1455.4400000000003 800.792 1455.6500000000003 799.293 1455.63L798.984 1455.63C797.486 1455.65 797.777 1455.44 797.051 1454.0100000000002L791.979 1442.4800000000002L791.9340000000001 1442.4900000000002L791.9340000000001 1442.4800000000002L791.8850000000001 1444.3100000000002L791.8850000000001 1455.63L788.9610000000001 1455.63C787.3120000000001 1455.63 787.3600000000001 1455.7900000000002 787.3600000000001 1454.0100000000002C787.3610000000001 1448.0400000000002 787.3600000000001 1442.0800000000002 787.3600000000001 1436.1100000000001C787.3730000000002 1435.5400000000002 787.7570000000002 1435.38 788.3090000000001 1435.4C789.5720000000001 1435.4 790.8340000000001 1435.4 792.0970000000001 1435.4C792.9540000000001 1435.44 793.5440000000001 1435.8500000000001 793.8620000000001 1436.66L796.1260000000001 1441.7L799.0620000000001 1448.17ZM754.625 1448.17L757.561 1441.7L759.826 1436.66C760.143 1435.8500000000001 760.7330000000001 1435.44 761.59 1435.4C762.852 1435.4 764.115 1435.4 765.3770000000001 1435.4C765.9290000000001 1435.38 766.3140000000001 1435.5400000000002 766.326 1436.1100000000001C766.327 1442.0800000000002 766.326 1448.0400000000002 766.326 1454.0100000000002C766.327 1455.7900000000002 766.374 1455.63 764.725 1455.63L761.804 1455.63L761.804 1444.3100000000002L761.754 1442.4800000000002L761.754 1442.4900000000002L761.708 1442.4800000000002L756.637 1454.0100000000002C755.909 1455.4400000000003 756.2009999999999 1455.6500000000003 754.703 1455.63L754.394 1455.63C752.895 1455.65 753.187 1455.44 752.46 1454.0100000000002L747.389 1442.4800000000002L747.343 1442.4900000000002L747.343 1442.4800000000002L747.294 1444.3100000000002L747.294 1455.63L744.371 1455.63C742.721 1455.63 742.77 1455.7900000000002 742.77 1454.0100000000002C742.77 1448.0400000000002 742.77 1442.0800000000002 742.77 1436.1100000000001C742.7819999999999 1435.5400000000002 743.1659999999999 1435.38 743.718 1435.4C744.981 1435.4 746.2439999999999 1435.4 747.506 1435.4C748.3629999999999 1435.44 748.953 1435.8500000000001 749.271 1436.66L751.535 1441.7L754.471 1448.17ZM823.987 1448.57C823.2869999999999 1447.96 822.0369999999999 1447.52 821.16 1447.26C819.3199999999999 1446.7 817.2149999999999 1445.91 815.692 1444.71C814.369 1443.67 813.774 1442.27 813.774 1440.6000000000001C813.775 1438.8300000000002 814.522 1437.41 815.929 1436.3300000000002C817.496 1435.13 819.396 1434.69 821.345 1434.69C823.375 1434.69 825.379 1435.14 826.972 1436.45C828.43 1437.65 829.108 1439.24 829.059 1441.1100000000001L829.059 1441.15L828.972 1441.39L824.632 1441.39L824.632 1441.19C824.632 1440.3500000000001 824.4119999999999 1439.56 823.765 1438.99C823.085 1438.39 822.17 1438.21 821.287 1438.21C820.503 1438.21 819.669 1438.3700000000001 819.063 1438.9C818.5459999999999 1439.3500000000001 818.299 1439.93 818.299 1440.6100000000001C818.299 1441.2700000000002 818.596 1441.7700000000002 819.1229999999999 1442.16C819.9279999999999 1442.76 821.237 1443.23 822.1779999999999 1443.5500000000002C824.0019999999998 1444.0600000000002 825.9769999999999 1444.8300000000002 827.4239999999999 1446.0800000000002C828.7029999999999 1447.18 829.2719999999998 1448.6200000000001 829.2719999999998 1450.2900000000002C829.2729999999998 1452.0700000000002 828.5739999999998 1453.5300000000002 827.1269999999998 1454.5900000000001C825.5219999999998 1455.7700000000002 823.5169999999998 1456.15 821.5569999999998 1456.15C819.4669999999998 1456.15 817.4739999999998 1455.67 815.7449999999998 1454.47C813.9979999999998 1453.26 813.3029999999998 1451.48 813.3499999999998 1449.39L813.3499999999998 1449.3600000000001L813.4379999999998 1449.1200000000001L817.7789999999998 1449.1200000000001L817.7789999999998 1449.3200000000002C817.7789999999998 1450.2700000000002 818.0029999999998 1451.2100000000003 818.7769999999998 1451.8300000000002C819.5599999999998 1452.45 820.5759999999998 1452.64 821.5569999999998 1452.64C822.3699999999998 1452.64 823.2949999999998 1452.51 823.9509999999998 1451.99C824.4949999999998 1451.56 824.7429999999998 1451 824.7429999999998 1450.31C824.7429999999998 1449.62 824.5169999999998 1449.03 823.9869999999999 1448.57ZM774.079 1448.04L774.079 1455.6299999999999C772.779 1455.6299999999999 771.4799999999999 1455.6299999999999 770.18 1455.6299999999999C769.886 1455.55 769.689 1455.3799999999999 769.708 1454.9999999999998L769.696 1437.2099999999998C769.696 1436.9299999999998 769.696 1436.6399999999999 769.696 1436.35C769.7860000000001 1435.75 770.181 1435.4099999999999 770.99 1435.4099999999999C774.997 1435.4099999999999 779.505 1435.4099999999999 783.5120000000001 1435.4099999999999C783.8950000000001 1435.3899999999999 784.0840000000001 1435.57 784.0770000000001 1435.9399999999998L784.0820000000001 1438.82L774.0790000000001 1438.82L774.0790000000001 1444.3799999999999L781.4970000000001 1444.3799999999999L781.4970000000001 1448.04ZM663.303 1443.63C662.956 1446.7600000000002 658.107 1449.1100000000001 652.306 1448.67C646.293 1448.23 642.147 1445.04 643.1500000000001 1441.78C644.0930000000001 1438.71 649.349 1436.83 654.609 1437.3999999999999C659.8670000000001 1437.9599999999998 663.616 1440.6699999999998 663.303 1443.6299999999999ZM833.428 1443.38C834.528 1442.1100000000001 835.981 1441.46 837.792 1441.46C839.6120000000001 1441.46 841.0690000000001 1442.1100000000001 842.168 1443.38C843.2620000000001 1444.66 843.811 1446.2900000000002 843.811 1448.2800000000002L843.812 1448.7000000000003C843.812 1450.7000000000003 843.266 1452.3400000000004 842.172 1453.6100000000004C841.0790000000001 1454.8800000000003 839.6270000000001 1455.5200000000004 837.817 1455.5200000000004C835.99 1455.5200000000004 834.527 1454.8800000000003 833.428 1453.6100000000004C832.336 1452.3400000000004 831.785 1450.7000000000003 831.785 1448.7000000000003L831.786 1448.2800000000002C831.786 1446.2900000000002 832.3349999999999 1444.6600000000003 833.428 1443.38ZM880.946 1443.38C882.0450000000001 1442.1100000000001 883.498 1441.46 885.3090000000001 1441.46C887.1290000000001 1441.46 888.5870000000001 1442.1100000000001 889.6840000000001 1443.38C890.7800000000001 1444.66 891.3280000000001 1446.2900000000002 891.3280000000001 1448.2800000000002L891.3280000000001 1448.7000000000003C891.3280000000001 1450.7000000000003 890.7840000000001 1452.3400000000004 889.6890000000001 1453.6100000000004C888.595 1454.8800000000003 887.1440000000001 1455.5200000000004 885.3340000000001 1455.5200000000004C883.5070000000001 1455.5200000000004 882.0450000000001 1454.8800000000003 880.946 1453.6100000000004C879.8530000000001 1452.3400000000004 879.303 1450.7000000000003 879.303 1448.7000000000003L879.304 1448.2800000000002C879.304 1446.2900000000002 879.852 1444.6600000000003 880.946 1443.38ZM915.715 1450.13C915.191 1449.66 914.2470000000001 1449.2800000000002 912.8820000000001 1448.97C911.2750000000001 1448.64 910.0770000000001 1448.18 909.292 1447.6000000000001C908.5120000000001 1447.0200000000002 908.1170000000001 1446.21 908.1170000000001 1445.17C908.1170000000001 1444.13 908.5540000000001 1443.26 909.4290000000001 1442.54C910.3050000000001 1441.82 911.4670000000001 1441.46 912.9040000000001 1441.46C914.4240000000001 1441.46 915.6330000000002 1441.8500000000001 916.5380000000001 1442.6100000000001C917.4440000000001 1443.3700000000001 917.8770000000002 1444.3100000000002 917.8340000000002 1445.43L917.8090000000002 1445.51L916.4150000000002 1445.51C916.4150000000002 1444.77 916.0920000000002 1444.12 915.4530000000002 1443.57C914.8100000000002 1443.02 913.9640000000002 1442.74 912.9040000000002 1442.74C911.8200000000003 1442.74 910.9950000000002 1442.98 910.4420000000002 1443.46C909.8900000000002 1443.93 909.6130000000003 1444.48 909.6130000000003 1445.1200000000001C909.6140000000003 1445.73 909.8490000000003 1446.2500000000002 910.3210000000003 1446.65C910.7990000000002 1447.0600000000002 911.7420000000003 1447.41 913.1570000000003 1447.72C914.7510000000003 1448.07 915.9550000000003 1448.56 916.7700000000003 1449.19C917.5900000000004 1449.81 917.9970000000003 1450.66 917.9970000000003 1451.71C917.9970000000003 1452.8400000000001 917.5380000000004 1453.76 916.6190000000003 1454.46C915.7030000000002 1455.17 914.4920000000003 1455.52 912.9810000000002 1455.52C911.3310000000002 1455.52 910.0340000000002 1455.1299999999999 909.0900000000003 1454.34C908.1510000000003 1453.56 907.7040000000003 1452.62 907.7510000000002 1451.54L907.7780000000002 1451.46L909.1600000000002 1451.46C909.2210000000002 1452.44 909.6180000000002 1453.15 910.3600000000002 1453.5900000000001C911.1030000000003 1454.0300000000002 911.9780000000003 1454.2600000000002 912.9810000000002 1454.2600000000002C914.0710000000003 1454.2600000000002 914.9290000000002 1454.0100000000002 915.5600000000002 1453.5300000000002C916.1880000000002 1453.0400000000002 916.5000000000002 1452.4700000000003 916.5000000000002 1451.7900000000002C916.5000000000002 1451.15 916.2380000000003 1450.6000000000001 915.7150000000003 1450.13ZM859.497 1454.88C858.7679999999999 1455.3100000000002 857.896 1455.5200000000002 856.8929999999999 1455.5200000000002C855.4609999999999 1455.5200000000002 854.3359999999999 1455.0300000000002 853.521 1454.0700000000002C852.7099999999999 1453.1000000000001 852.303 1451.6000000000001 852.303 1449.5600000000002L852.303 1441.7200000000003L853.813 1441.7200000000003L853.813 1449.5900000000001C853.813 1451.2400000000002 854.096 1452.42 854.663 1453.14C855.224 1453.8600000000001 856.027 1454.22 857.068 1454.22C858.197 1454.22 859.103 1453.97 859.775 1453.46C860.4499999999999 1452.95 860.9259999999999 1452.27 861.1999999999999 1451.39L861.1999999999999 1441.72L862.7119999999999 1441.72L862.7119999999999 1455.26L861.3769999999998 1455.26L861.2519999999998 1453.05C860.8189999999998 1453.85 860.2309999999999 1454.46 859.4969999999998 1454.8799999999999ZM895.722 1444.07C896.164 1443.24 896.755 1442.61 897.494 1442.1499999999999C898.2320000000001 1441.6899999999998 899.1070000000001 1441.4599999999998 900.119 1441.4599999999998C901.596 1441.4599999999998 902.719 1441.9099999999999 903.486 1442.8099999999997C904.26 1443.7099999999998 904.645 1445.1099999999997 904.645 1447.0099999999998L904.646 1455.2599999999998L903.135 1455.2599999999998L903.135 1447.0199999999998C903.135 1445.4699999999998 902.8439999999999 1444.3699999999997 902.264 1443.7299999999998C901.682 1443.0899999999997 900.8530000000001 1442.7699999999998 899.78 1442.7699999999998C898.709 1442.7699999999998 897.841 1443.0299999999997 897.184 1443.5599999999997C896.529 1444.0799999999997 896.052 1444.7899999999997 895.76 1445.6699999999996L895.762 1455.2599999999995L894.251 1455.2599999999995L894.251 1441.7199999999996L895.5799999999999 1441.7199999999996ZM667.612 1428.83C667.48 1430.9499999999998 663.8389999999999 1432.3 659.377 1431.73C654.7869999999999 1431.15 651.443 1428.83 651.997 1426.66C652.529 1424.5900000000001 656.4449999999999 1423.52 660.56 1424.14C664.675 1424.76 667.742 1426.8100000000002 667.612 1428.8300000000002ZM868.812 1441.72L871.802 1441.72L871.802 1442.94L868.812 1442.94L868.812 1451.77C868.812 1452.65 868.97 1453.28 869.296 1453.65C869.619 1454.02 870.047 1454.2 870.5840000000001 1454.2C870.768 1454.2 870.9430000000001 1454.19 871.115 1454.17C871.288 1454.15 871.493 1454.1100000000001 871.724 1454.0700000000002L871.952 1455.18C871.751 1455.28 871.501 1455.3600000000001 871.206 1455.43C870.9110000000001 1455.49 870.613 1455.52 870.317 1455.52C869.366 1455.52 868.618 1455.22 868.086 1454.62C867.554 1454.02 867.288 1453.06 867.288 1451.77L867.289 1442.94L864.938 1442.94L864.938 1441.72L867.289 1441.72L867.289 1438.25L868.812 1438.25ZM834.484 1452.65C835.283 1453.72 836.393 1454.26 837.817 1454.26C839.217 1454.26 840.314 1453.72 841.117 1452.65C841.9159999999999 1451.5900000000001 842.318 1450.27 842.318 1448.7L842.319 1448.28C842.319 1446.74 841.915 1445.43 841.108 1444.36C840.3069999999999 1443.28 839.199 1442.74 837.7919999999999 1442.74C836.386 1442.74 835.2819999999999 1443.28 834.4839999999999 1444.36C833.6909999999999 1445.4299999999998 833.2909999999999 1446.74 833.2909999999999 1448.28L833.2909999999999 1448.7C833.2909999999999 1450.27 833.6899999999999 1451.5900000000001 834.4839999999999 1452.65ZM882.001 1452.65C882.8009999999999 1453.72 883.91 1454.26 885.334 1454.26C886.7339999999999 1454.26 887.8309999999999 1453.72 888.6339999999999 1452.65C889.4329999999999 1451.5900000000001 889.8349999999999 1450.27 889.8349999999999 1448.7L889.8349999999999 1448.28C889.8349999999999 1446.74 889.4319999999999 1445.43 888.6249999999999 1444.36C887.8239999999998 1443.28 886.7149999999999 1442.74 885.3089999999999 1442.74C883.9029999999999 1442.74 882.7999999999998 1443.28 882.0009999999999 1444.36C881.2089999999998 1445.4299999999998 880.8079999999999 1446.74 880.8079999999999 1448.28L880.8089999999999 1448.7C880.8089999999999 1450.27 881.2069999999999 1451.5900000000001 882.0009999999999 1452.65ZM720.48 1457.8C721.332 1460 719.804 1461.73 716.972 1461.58C714.092 1461.4199999999998 711.149 1459.3799999999999 710.463 1457.11C709.8 1454.9199999999998 711.534 1453.3999999999999 714.223 1453.62C716.911 1453.84 719.649 1455.6799999999998 720.4799999999999 1457.8ZM744.103 1464.88C744.342 1464.45 744.655 1464.1200000000001 745.049 1463.89C745.443 1463.65 745.908 1463.5300000000002 746.452 1463.5300000000002C747.016 1463.5300000000002 747.486 1463.6700000000003 747.864 1463.9400000000003C748.241 1464.2100000000003 748.514 1464.6200000000003 748.676 1465.1700000000003C748.9010000000001 1464.6600000000003 749.2170000000001 1464.2600000000002 749.629 1463.9700000000003C750.039 1463.6800000000003 750.538 1463.5300000000002 751.119 1463.5300000000002C751.908 1463.5300000000002 752.515 1463.7900000000002 752.9440000000001 1464.3100000000002C753.3760000000001 1464.8300000000002 753.589 1465.64 753.589 1466.7300000000002L753.59 1471.0200000000002L752.773 1471.0200000000002L752.773 1466.7200000000003C752.773 1465.8100000000002 752.6080000000001 1465.1700000000003 752.287 1464.8000000000002C751.964 1464.4300000000003 751.518 1464.2400000000002 750.947 1464.2400000000002C750.325 1464.2400000000002 749.844 1464.4300000000003 749.501 1464.8100000000002C749.1619999999999 1465.18 748.944 1465.67 748.8539999999999 1466.2700000000002C748.8539999999999 1466.3200000000002 748.8549999999999 1466.3700000000001 748.8549999999999 1466.4200000000003C748.858 1466.4700000000003 748.8609999999999 1466.5300000000002 748.8609999999999 1466.6100000000004L748.8609999999999 1471.0200000000004L748.0329999999999 1471.0200000000004L748.0329999999999 1466.7200000000005C748.0329999999999 1465.8300000000004 747.872 1465.2000000000005 747.5459999999999 1464.8100000000004C747.2199999999999 1464.4300000000003 746.7719999999999 1464.2400000000005 746.2049999999999 1464.2400000000005C745.631 1464.2400000000005 745.175 1464.3800000000006 744.8369999999999 1464.6700000000005C744.4979999999998 1464.9600000000005 744.2599999999999 1465.3500000000006 744.1239999999999 1465.8400000000006L744.1239999999999 1471.0200000000007L743.3039999999999 1471.0200000000007L743.3039999999999 1463.6700000000008L744.0289999999999 1463.6700000000008ZM837.358 1464.88C837.596 1464.45 837.911 1464.1200000000001 838.304 1463.89C838.698 1463.65 839.163 1463.5300000000002 839.707 1463.5300000000002C840.271 1463.5300000000002 840.74 1463.6700000000003 841.1179999999999 1463.9400000000003C841.496 1464.2100000000003 841.7689999999999 1464.6200000000003 841.9309999999999 1465.1700000000003C842.156 1464.6600000000003 842.472 1464.2600000000002 842.8839999999999 1463.9700000000003C843.2949999999998 1463.6800000000003 843.7929999999999 1463.5300000000002 844.3739999999999 1463.5300000000002C845.1629999999999 1463.5300000000002 845.7699999999999 1463.7900000000002 846.199 1464.3100000000002C846.631 1464.8300000000002 846.8449999999999 1465.64 846.8449999999999 1466.7300000000002L846.8449999999999 1471.0200000000002L846.0269999999999 1471.0200000000002L846.0269999999999 1466.7200000000003C846.0269999999999 1465.8100000000002 845.8629999999999 1465.1700000000003 845.5419999999999 1464.8000000000002C845.2189999999999 1464.4300000000003 844.7729999999999 1464.2400000000002 844.2019999999999 1464.2400000000002C843.5809999999999 1464.2400000000002 843.0989999999999 1464.4300000000003 842.7559999999999 1464.8100000000002C842.4159999999998 1465.18 842.1989999999998 1465.67 842.1089999999998 1466.2700000000002C842.1089999999998 1466.3200000000002 842.1099999999998 1466.3700000000001 842.1099999999998 1466.4200000000003C842.1129999999998 1466.4700000000003 842.1149999999998 1466.5300000000002 842.1149999999998 1466.6100000000004L842.1159999999998 1471.0200000000004L841.2889999999998 1471.0200000000004L841.2889999999998 1466.7200000000005C841.2889999999998 1465.8300000000004 841.1269999999997 1465.2000000000005 840.8019999999998 1464.8100000000004C840.4759999999998 1464.4300000000003 840.0269999999998 1464.2400000000005 839.4599999999998 1464.2400000000005C838.8869999999998 1464.2400000000005 838.4299999999998 1464.3800000000006 838.0919999999998 1464.6700000000005C837.7529999999997 1464.9600000000005 837.5139999999998 1465.3500000000006 837.3789999999998 1465.8400000000006L837.3789999999998 1471.0200000000007L836.5599999999998 1471.0200000000007L836.5599999999998 1463.6700000000008L837.2849999999999 1463.6700000000008ZM887.529 1464.88C887.767 1464.45 888.081 1464.1200000000001 888.475 1463.89C888.869 1463.65 889.3340000000001 1463.5300000000002 889.8770000000001 1463.5300000000002C890.4420000000001 1463.5300000000002 890.9110000000001 1463.6700000000003 891.2890000000001 1463.9400000000003C891.6680000000001 1464.2100000000003 891.9390000000001 1464.6200000000003 892.1020000000001 1465.1700000000003C892.3270000000001 1464.6600000000003 892.642 1464.2600000000002 893.0550000000001 1463.9700000000003C893.466 1463.6800000000003 893.9630000000001 1463.5300000000002 894.546 1463.5300000000002C895.3340000000001 1463.5300000000002 895.941 1463.7900000000002 896.37 1464.3100000000002C896.802 1464.8300000000002 897.015 1465.64 897.015 1466.7300000000002L897.016 1471.0200000000002L896.198 1471.0200000000002L896.198 1466.7200000000003C896.198 1465.8100000000002 896.034 1465.1700000000003 895.713 1464.8000000000002C895.39 1464.4300000000003 894.944 1464.2400000000002 894.3729999999999 1464.2400000000002C893.752 1464.2400000000002 893.2689999999999 1464.4300000000003 892.9269999999999 1464.8100000000002C892.5869999999999 1465.18 892.3699999999999 1465.67 892.2789999999999 1466.2700000000002C892.2799999999999 1466.3200000000002 892.2809999999998 1466.3700000000001 892.2809999999998 1466.4200000000003C892.2849999999999 1466.4700000000003 892.2859999999998 1466.5300000000002 892.2859999999998 1466.6100000000004L892.2869999999998 1471.0200000000004L891.4589999999998 1471.0200000000004L891.4589999999998 1466.7200000000005C891.4589999999998 1465.8300000000004 891.2979999999999 1465.2000000000005 890.9719999999999 1464.8100000000004C890.6469999999998 1464.4300000000003 890.1979999999999 1464.2400000000005 889.6299999999999 1464.2400000000005C889.0569999999999 1464.2400000000005 888.6009999999999 1464.3800000000006 888.2629999999999 1464.6700000000005C887.9229999999999 1464.9600000000005 887.685 1465.3500000000006 887.55 1465.8400000000006L887.5509999999999 1471.0200000000007L886.7309999999999 1471.0200000000007L886.7309999999999 1463.6700000000008L887.4549999999999 1463.6700000000008ZM685.74 1425.01C686.006 1426.69 683.511 1427.68 680.102 1427.16C676.603 1426.6200000000001 673.692 1424.75 673.674 1423.0600000000002C673.648 1421.42 676.353 1420.6100000000001 679.567 1421.16C682.78 1421.71 685.48 1423.41 685.74 1425.01ZM702.486 1457.2C702.947 1459.22 701.125 1460.79 698.358 1460.64C695.5429999999999 1460.5 692.962 1458.64 692.6629999999999 1456.5700000000002C692.3709999999999 1454.5600000000002 694.3429999999998 1453.16 696.978 1453.3600000000001C699.6139999999999 1453.5600000000002 702.0269999999999 1455.2500000000002 702.486 1457.2ZM727.324 1448.93C728.26 1450.8400000000001 726.9939999999999 1452.24 724.424 1452C721.812 1451.76 718.989 1449.92 718.191 1447.96C717.419 1446.07 718.868 1444.8400000000001 721.33 1445.13C723.7900000000001 1445.41 726.4200000000001 1447.0800000000002 727.3240000000001 1448.93ZM768.698 1470.18C768.1999999999999 1470.8300000000002 767.51 1471.16 766.632 1471.16C766.0949999999999 1471.16 765.6279999999999 1471.0500000000002 765.236 1470.8400000000001C764.8439999999999 1470.6200000000001 764.5219999999999 1470.3200000000002 764.278 1469.92L764.14 1471.02L763.5 1471.02L763.5 1460.42L764.319 1460.42L764.319 1464.79C764.563 1464.3899999999999 764.8779999999999 1464.08 765.26 1463.86C765.6419999999999 1463.6399999999999 766.0939999999999 1463.53 766.6179999999999 1463.53C767.506 1463.53 768.199 1463.8799999999999 768.698 1464.59C769.1999999999999 1465.29 769.4499999999999 1466.23 769.4499999999999 1467.3999999999999L769.4509999999999 1467.55C769.4509999999999 1468.6499999999999 769.199 1469.53 768.6979999999999 1470.18ZM872.238 1464.59C872.7370000000001 1463.8799999999999 873.431 1463.53 874.3230000000001 1463.53C874.8460000000001 1463.53 875.3020000000001 1463.6399999999999 875.6880000000001 1463.87C876.0760000000001 1464.09 876.392 1464.4099999999999 876.6440000000001 1464.82L876.7600000000001 1463.6699999999998L877.4230000000001 1463.6699999999998L877.4230000000001 1471.06C877.4230000000001 1472 877.1610000000002 1472.72 876.6440000000001 1473.23C876.1260000000001 1473.73 875.3900000000001 1473.99 874.4390000000001 1473.99C874.0840000000001 1473.99 873.7060000000001 1473.95 873.3030000000001 1473.86C872.9000000000001 1473.77 872.5480000000001 1473.6599999999999 872.2470000000001 1473.51L872.4050000000001 1472.82C872.7 1472.97 873.0160000000001 1473.07 873.349 1473.1499999999999C873.686 1473.2199999999998 874.043 1473.2599999999998 874.426 1473.2599999999998C875.154 1473.2599999999998 875.6980000000001 1473.0799999999997 876.056 1472.7099999999998C876.4150000000001 1472.3299999999997 876.594 1471.7799999999997 876.594 1471.0599999999997L876.596 1470.0199999999998C876.346 1470.3899999999996 876.029 1470.6699999999998 875.643 1470.8699999999997C875.2610000000001 1471.0599999999997 874.815 1471.1599999999996 874.3100000000001 1471.1599999999996C873.426 1471.1599999999996 872.7360000000001 1470.8299999999997 872.238 1470.1799999999996C871.74 1469.5199999999995 871.4910000000001 1468.6399999999996 871.4910000000001 1467.5499999999995L871.4920000000001 1467.3999999999994C871.4920000000001 1466.2299999999993 871.7400000000001 1465.2899999999995 872.238 1464.5899999999995ZM788.694 1464.33L787.468 1464.33L787.468 1463.6699999999998L788.694 1463.6699999999998L788.694 1462.7299999999998C788.694 1461.9499999999998 788.911 1461.3499999999997 789.342 1460.9199999999998C789.776 1460.4899999999998 790.376 1460.2799999999997 791.145 1460.2799999999997C791.4499999999999 1460.2799999999997 791.758 1460.3099999999997 792.072 1460.3799999999997C792.3870000000001 1460.4499999999996 792.705 1460.5499999999997 793.027 1460.6799999999996L792.892 1461.3799999999997C792.615 1461.2699999999998 792.345 1461.1799999999996 792.086 1461.1099999999997C791.828 1461.0499999999997 791.5310000000001 1461.0199999999998 791.198 1461.0199999999998C790.644 1461.0199999999998 790.225 1461.1699999999998 789.9399999999999 1461.4599999999998C789.6569999999999 1461.7499999999998 789.5139999999999 1462.1799999999998 789.5139999999999 1462.7299999999998L789.5149999999999 1463.6699999999998L791.2409999999999 1463.6699999999998L791.2409999999999 1464.33L789.5149999999999 1464.33L789.5149999999999 1471.02L788.6939999999998 1471.02ZM704.004 1429C704.552 1430.55 702.768 1431.51 699.9590000000001 1431.08C697.1010000000001 1430.6499999999999 694.4150000000001 1428.97 694.028 1427.3999999999999C693.648 1425.8799999999999 695.6080000000001 1425.07 698.287 1425.53C700.967 1425.98 703.481 1427.51 704.004 1429ZM686.52 1450.32C686.704 1452.02 684.74 1453.29 682.112 1453.11C679.4399999999999 1452.9099999999999 677.2049999999999 1451.3 677.1719999999999 1449.55C677.1279999999999 1447.86 679.2139999999999 1446.72 681.7219999999999 1446.95C684.2289999999998 1447.18 686.3489999999998 1448.66 686.5199999999999 1450.32ZM718.99 1437.15C719.745 1438.77 718.365 1439.8600000000001 715.8530000000001 1439.52C713.2860000000001 1439.18 710.642 1437.52 710.014 1435.87C709.4060000000001 1434.28 710.953 1433.33 713.373 1433.6899999999998C715.792 1434.0599999999997 718.26 1435.59 718.99 1437.1499999999999ZM756.154 1464.57C756.75 1463.8799999999999 757.54 1463.53 758.524 1463.53C759.5120000000001 1463.53 760.303 1463.8799999999999 760.899 1464.57C761.495 1465.27 761.792 1466.1499999999999 761.792 1467.23L761.792 1467.46C761.792 1468.55 761.495 1469.44 760.902 1470.13C760.308 1470.8200000000002 759.5210000000001 1471.16 758.537 1471.16C757.546 1471.16 756.75 1470.8200000000002 756.154 1470.13C755.56 1469.44 755.261 1468.5500000000002 755.261 1467.46L755.261 1467.23C755.261 1466.15 755.56 1465.27 756.154 1464.57ZM899.621 1470.15C899.0269999999999 1469.48 898.727 1468.6200000000001 898.727 1467.5600000000002L898.728 1467.1900000000003C898.728 1466.1300000000003 899.03 1465.2500000000002 899.631 1464.5700000000004C900.235 1463.8800000000003 900.982 1463.5300000000004 901.874 1463.5300000000004C902.772 1463.5300000000004 903.4630000000001 1463.8200000000004 903.953 1464.3900000000003C904.442 1464.9600000000003 904.6859999999999 1465.7400000000002 904.6859999999999 1466.7100000000003L904.6879999999999 1467.3400000000004L899.5479999999999 1467.3400000000004L899.5479999999999 1467.5600000000004C899.5479999999999 1468.4000000000003 899.7589999999999 1469.0900000000004 900.1849999999998 1469.6500000000003C900.6099999999998 1470.2000000000003 901.1979999999999 1470.4800000000002 901.9489999999998 1470.4800000000002C902.3989999999999 1470.4800000000002 902.8129999999999 1470.4000000000003 903.1909999999998 1470.2500000000002C903.5689999999998 1470.1100000000001 903.8819999999998 1469.9100000000003 904.1319999999998 1469.6600000000003L904.4809999999999 1470.2200000000003C904.2229999999998 1470.4900000000002 903.8819999999998 1470.7200000000003 903.4609999999999 1470.8900000000003C903.0399999999998 1471.0700000000004 902.536 1471.1600000000003 901.9499999999999 1471.1600000000003C900.9949999999999 1471.1600000000003 900.218 1470.8200000000004 899.621 1470.1500000000003ZM778.101 1470.15C777.506 1469.48 777.206 1468.6200000000001 777.206 1467.5600000000002L777.206 1467.1900000000003C777.206 1466.1300000000003 777.509 1465.2500000000002 778.11 1464.5700000000004C778.715 1463.8800000000003 779.462 1463.5300000000004 780.354 1463.5300000000004C781.2510000000001 1463.5300000000004 781.942 1463.8200000000004 782.432 1464.3900000000003C782.922 1464.9600000000003 783.166 1465.7400000000002 783.166 1466.7100000000003L783.167 1467.3400000000004L778.027 1467.3400000000004L778.027 1467.5600000000004C778.027 1468.4000000000003 778.238 1469.0900000000004 778.6650000000001 1469.6500000000003C779.09 1470.2000000000003 779.6780000000001 1470.4800000000002 780.4290000000001 1470.4800000000002C780.8790000000001 1470.4800000000002 781.2920000000001 1470.4000000000003 781.671 1470.2500000000002C782.048 1470.1100000000001 782.3620000000001 1469.9100000000003 782.6110000000001 1469.6600000000003L782.9620000000001 1470.2200000000003C782.7030000000001 1470.4900000000002 782.3620000000001 1470.7200000000003 781.9410000000001 1470.8900000000003C781.5190000000001 1471.0700000000004 781.0150000000001 1471.1600000000003 780.4290000000002 1471.1600000000003C779.4740000000002 1471.1600000000003 778.6980000000002 1470.8200000000004 778.1010000000002 1470.1500000000003ZM826.472 1470.15C825.876 1469.48 825.577 1468.6200000000001 825.577 1467.5600000000002L825.578 1467.1900000000003C825.578 1466.1300000000003 825.88 1465.2500000000002 826.481 1464.5700000000004C827.086 1463.8800000000003 827.833 1463.5300000000004 828.725 1463.5300000000004C829.623 1463.5300000000004 830.312 1463.8200000000004 830.803 1464.3900000000003C831.293 1464.9600000000003 831.536 1465.7400000000002 831.536 1466.7100000000003L831.5369999999999 1467.3400000000004L826.3979999999999 1467.3400000000004L826.3979999999999 1467.5600000000004C826.3979999999999 1468.4000000000003 826.6099999999999 1469.0900000000004 827.036 1469.6500000000003C827.4609999999999 1470.2000000000003 828.049 1470.4800000000002 828.8 1470.4800000000002C829.25 1470.4800000000002 829.663 1470.4000000000003 830.0409999999999 1470.2500000000002C830.4179999999999 1470.1100000000001 830.732 1469.9100000000003 830.982 1469.6600000000003L831.332 1470.2200000000003C831.074 1470.4900000000002 830.732 1470.7200000000003 830.311 1470.8900000000003C829.8910000000001 1471.0700000000004 829.3860000000001 1471.1600000000003 828.801 1471.1600000000003C827.845 1471.1600000000003 827.0680000000001 1470.8200000000004 826.4720000000001 1470.1500000000003ZM880.042 1470.15C879.447 1469.48 879.147 1468.6200000000001 879.147 1467.5600000000002L879.148 1467.1900000000003C879.148 1466.1300000000003 879.45 1465.2500000000002 880.051 1464.5700000000004C880.6560000000001 1463.8800000000003 881.402 1463.5300000000004 882.2940000000001 1463.5300000000004C883.1930000000001 1463.5300000000004 883.8820000000001 1463.8200000000004 884.373 1464.3900000000003C884.8620000000001 1464.9600000000003 885.106 1465.7400000000002 885.106 1466.7100000000003L885.107 1467.3400000000004L879.9689999999999 1467.3400000000004L879.9689999999999 1467.5600000000004C879.9689999999999 1468.4000000000003 880.18 1469.0900000000004 880.6059999999999 1469.6500000000003C881.0309999999998 1470.2000000000003 881.6189999999999 1470.4800000000002 882.3689999999999 1470.4800000000002C882.8199999999999 1470.4800000000002 883.233 1470.4000000000003 883.6099999999999 1470.2500000000002C883.9889999999999 1470.1100000000001 884.3009999999999 1469.9100000000003 884.5519999999999 1469.6600000000003L884.9019999999999 1470.2200000000003C884.6439999999999 1470.4900000000002 884.3009999999999 1470.7200000000003 883.881 1470.8900000000003C883.4599999999999 1471.0700000000004 882.956 1471.1600000000003 882.37 1471.1600000000003C881.415 1471.1600000000003 880.638 1470.8200000000004 880.042 1470.1500000000003ZM868.83 1470.35C868.807 1470.1699999999998 868.793 1469.98 868.793 1469.78C868.54 1470.18 868.183 1470.51 867.721 1470.77C867.263 1471.03 866.735 1471.16 866.14 1471.16C865.4159999999999 1471.16 864.853 1470.97 864.455 1470.5900000000001C864.0600000000001 1470.2 863.859 1469.69 863.859 1469.0300000000002C863.86 1468.3700000000001 864.147 1467.8400000000001 864.725 1467.4300000000003C865.304 1467.0200000000002 866.0550000000001 1466.8200000000004 866.9780000000001 1466.8200000000004L868.7940000000001 1466.8200000000004L868.7940000000001 1465.9100000000003C868.7940000000001 1465.3800000000003 868.6250000000001 1464.9700000000003 868.2920000000001 1464.6700000000003C867.9570000000001 1464.3800000000003 867.4860000000001 1464.2200000000003 866.8760000000001 1464.2200000000003C866.3170000000001 1464.2200000000003 865.8640000000001 1464.3600000000004 865.5230000000001 1464.6300000000003C865.1780000000001 1464.9000000000003 865.0050000000001 1465.2500000000002 865.0050000000001 1465.6600000000003L864.2480000000002 1465.6600000000003L864.2340000000002 1465.6200000000003C864.2090000000002 1465.0700000000004 864.4460000000001 1464.5800000000004 864.9460000000001 1464.1600000000003C865.4510000000001 1463.7400000000002 866.1070000000001 1463.5300000000002 866.9180000000001 1463.5300000000002C867.7260000000001 1463.5300000000002 868.3780000000002 1463.7400000000002 868.8700000000001 1464.15C869.3590000000002 1464.5600000000002 869.6060000000001 1465.15 869.6060000000001 1465.92L869.6070000000001 1469.54C869.6070000000001 1469.8 869.6200000000001 1470.05 869.6500000000001 1470.29C869.681 1470.54 869.729 1470.78 869.7970000000001 1471.02L868.9440000000002 1471.02C868.8930000000001 1470.76 868.8570000000002 1470.54 868.8300000000002 1470.35ZM853.535 1470.35C853.512 1470.1699999999998 853.4979999999999 1469.98 853.4979999999999 1469.78C853.2449999999999 1470.18 852.887 1470.51 852.4259999999999 1470.77C851.968 1471.03 851.4399999999999 1471.16 850.8439999999999 1471.16C850.1199999999999 1471.16 849.558 1470.97 849.16 1470.5900000000001C848.7629999999999 1470.2 848.564 1469.69 848.564 1469.0300000000002C848.564 1468.3700000000001 848.852 1467.8400000000001 849.43 1467.4300000000003C850.0079999999999 1467.0200000000002 850.76 1466.8200000000004 851.683 1466.8200000000004L853.498 1466.8200000000004L853.498 1465.9100000000003C853.498 1465.3800000000003 853.33 1464.9700000000003 852.9960000000001 1464.6700000000003C852.6620000000001 1464.3800000000003 852.1910000000001 1464.2200000000003 851.5810000000001 1464.2200000000003C851.0220000000002 1464.2200000000003 850.5690000000002 1464.3600000000004 850.2270000000001 1464.6300000000003C849.883 1464.9000000000003 849.71 1465.2500000000002 849.71 1465.6600000000003L848.9530000000001 1465.6600000000003L848.9380000000001 1465.6200000000003C848.9130000000001 1465.0700000000004 849.1500000000001 1464.5800000000004 849.6510000000001 1464.1600000000003C850.1550000000001 1463.7400000000002 850.812 1463.5300000000002 851.6220000000001 1463.5300000000002C852.431 1463.5300000000002 853.0830000000001 1463.7400000000002 853.5740000000001 1464.15C854.0640000000001 1464.5600000000002 854.3100000000001 1465.15 854.3100000000001 1465.92L854.311 1469.54C854.311 1469.8 854.3240000000001 1470.05 854.354 1470.29C854.385 1470.54 854.4340000000001 1470.78 854.5020000000001 1471.02L853.6490000000001 1471.02C853.5980000000001 1470.76 853.5610000000001 1470.54 853.5350000000001 1470.35ZM808.067 1470.35C808.044 1470.1699999999998 808.029 1469.98 808.029 1469.78C807.776 1470.18 807.419 1470.51 806.958 1470.77C806.5 1471.03 805.972 1471.16 805.376 1471.16C804.6519999999999 1471.16 804.09 1470.97 803.691 1470.5900000000001C803.296 1470.2 803.095 1469.69 803.095 1469.0300000000002C803.096 1468.3700000000001 803.384 1467.8400000000001 803.962 1467.4300000000003C804.54 1467.0200000000002 805.292 1466.8200000000004 806.215 1466.8200000000004L808.0300000000001 1466.8200000000004L808.0300000000001 1465.9100000000003C808.0300000000001 1465.3800000000003 807.8620000000001 1464.9700000000003 807.5280000000001 1464.6700000000003C807.1930000000001 1464.3800000000003 806.7230000000002 1464.2200000000003 806.1120000000001 1464.2200000000003C805.5540000000001 1464.2200000000003 805.1010000000001 1464.3600000000004 804.7590000000001 1464.6300000000003C804.4150000000001 1464.9000000000003 804.2420000000001 1465.2500000000002 804.2420000000001 1465.6600000000003L803.4850000000001 1465.6600000000003L803.4710000000001 1465.6200000000003C803.4450000000002 1465.0700000000004 803.6820000000001 1464.5800000000004 804.1830000000001 1464.1600000000003C804.6870000000001 1463.7400000000002 805.344 1463.5300000000002 806.1540000000001 1463.5300000000002C806.9630000000001 1463.5300000000002 807.6150000000001 1463.7400000000002 808.1060000000001 1464.15C808.5960000000001 1464.5600000000002 808.8430000000001 1465.15 808.8430000000001 1465.92L808.8430000000001 1469.54C808.8430000000001 1469.8 808.8560000000001 1470.05 808.8860000000001 1470.29C808.9180000000001 1470.54 808.965 1470.78 809.0330000000001 1471.02L808.1810000000002 1471.02C808.1300000000001 1470.76 808.0920000000001 1470.54 808.0670000000001 1470.35ZM822.891 1470.01C823.294 1469.71 823.497 1469.28 823.497 1468.73L824.226 1468.73L824.241 1468.77C824.26 1469.45 823.989 1470.02 823.434 1470.48C822.88 1470.93 822.237 1471.16 821.5029999999999 1471.16C820.521 1471.16 819.7549999999999 1470.8200000000002 819.2059999999999 1470.13C818.6589999999999 1469.44 818.3829999999999 1468.5600000000002 818.3829999999999 1467.49L818.3839999999999 1467.2C818.3839999999999 1466.13 818.656 1465.25 819.204 1464.57C819.75 1463.8799999999999 820.5129999999999 1463.53 821.496 1463.53C822.288 1463.53 822.947 1463.77 823.476 1464.25C824.003 1464.72 824.259 1465.35 824.24 1466.12L824.226 1466.1599999999999L823.498 1466.1599999999999C823.498 1465.57 823.303 1465.1 822.917 1464.7499999999998C822.528 1464.3999999999999 822.0550000000001 1464.2199999999998 821.496 1464.2199999999998C820.723 1464.2199999999998 820.1469999999999 1464.5099999999998 819.769 1465.0699999999997C819.393 1465.6399999999996 819.204 1466.3499999999997 819.204 1467.1999999999998L819.204 1467.4899999999998C819.204 1468.3499999999997 819.3919999999999 1469.0699999999997 819.769 1469.6299999999999C820.148 1470.1899999999998 820.725 1470.4799999999998 821.504 1470.4799999999998C822.027 1470.4799999999998 822.488 1470.3199999999997 822.891 1470.0099999999998ZM796.524 1464.95C796.765 1464.5 797.085 1464.15 797.486 1463.9C797.888 1463.66 798.362 1463.5300000000002 798.911 1463.5300000000002C799.713 1463.5300000000002 800.324 1463.7700000000002 800.7399999999999 1464.2600000000002C801.161 1464.7500000000002 801.3689999999999 1465.5100000000002 801.3689999999999 1466.5400000000002L801.3699999999999 1471.0200000000002L800.5499999999998 1471.0200000000002L800.5499999999998 1466.5500000000002C800.5499999999998 1465.7100000000003 800.3909999999998 1465.1100000000001 800.0769999999999 1464.7600000000002C799.7609999999999 1464.4100000000003 799.3099999999998 1464.2400000000002 798.7279999999998 1464.2400000000002C798.1459999999998 1464.2400000000002 797.6749999999998 1464.3800000000003 797.3189999999998 1464.6700000000003C796.9619999999999 1464.9500000000003 796.7029999999999 1465.3400000000004 796.5439999999999 1465.8200000000004L796.5459999999998 1471.0200000000004L795.7249999999998 1471.0200000000004L795.7249999999998 1463.6700000000005L796.4479999999998 1463.6700000000005ZM811.821 1464.95C812.0600000000001 1464.5 812.381 1464.15 812.7810000000001 1463.9C813.1830000000001 1463.66 813.658 1463.5300000000002 814.2070000000001 1463.5300000000002C815.0090000000001 1463.5300000000002 815.6190000000001 1463.7700000000002 816.0360000000001 1464.2600000000002C816.456 1464.7500000000002 816.6650000000001 1465.5100000000002 816.6650000000001 1466.5400000000002L816.6650000000001 1471.0200000000002L815.8460000000001 1471.0200000000002L815.8460000000001 1466.5500000000002C815.8460000000001 1465.7100000000003 815.6870000000001 1465.1100000000001 815.3720000000001 1464.7600000000002C815.0550000000001 1464.4100000000003 814.605 1464.2400000000002 814.023 1464.2400000000002C813.441 1464.2400000000002 812.971 1464.3800000000003 812.614 1464.6700000000003C812.258 1464.9500000000003 811.999 1465.3400000000004 811.84 1465.8200000000004L811.841 1471.0200000000004L811.021 1471.0200000000004L811.021 1463.6700000000005L811.7429999999999 1463.6700000000005ZM857.288 1464.95C857.529 1464.5 857.849 1464.15 858.25 1463.9C858.651 1463.66 859.126 1463.5300000000002 859.675 1463.5300000000002C860.477 1463.5300000000002 861.087 1463.7700000000002 861.5039999999999 1464.2600000000002C861.9239999999999 1464.7500000000002 862.1329999999999 1465.5100000000002 862.1329999999999 1466.5400000000002L862.1329999999999 1471.0200000000002L861.3149999999999 1471.0200000000002L861.3149999999999 1466.5500000000002C861.3149999999999 1465.7100000000003 861.155 1465.1100000000001 860.8399999999999 1464.7600000000002C860.5239999999999 1464.4100000000003 860.074 1464.2400000000002 859.492 1464.2400000000002C858.91 1464.2400000000002 858.439 1464.3800000000003 858.082 1464.6700000000003C857.727 1464.9500000000003 857.467 1465.3400000000004 857.308 1465.8200000000004L857.308 1471.0200000000004L856.489 1471.0200000000004L856.489 1463.6700000000005L857.211 1463.6700000000005ZM907.139 1464.95C907.379 1464.5 907.699 1464.15 908.099 1463.9C908.5010000000001 1463.66 908.975 1463.5300000000002 909.5250000000001 1463.5300000000002C910.3270000000001 1463.5300000000002 910.9370000000001 1463.7700000000002 911.3530000000001 1464.2600000000002C911.7750000000001 1464.7500000000002 911.9820000000001 1465.5100000000002 911.9820000000001 1466.5400000000002L911.9830000000001 1471.0200000000002L911.1640000000001 1471.0200000000002L911.1640000000001 1466.5500000000002C911.1640000000001 1465.7100000000003 911.0050000000001 1465.1100000000001 910.69 1464.7600000000002C910.374 1464.4100000000003 909.923 1464.2400000000002 909.341 1464.2400000000002C908.76 1464.2400000000002 908.288 1464.3800000000003 907.932 1464.6700000000003C907.577 1464.9500000000003 907.316 1465.3400000000004 907.158 1465.8200000000004L907.159 1471.0200000000004L906.3389999999999 1471.0200000000004L906.3389999999999 1463.6700000000005L907.0619999999999 1463.6700000000005ZM679.207 1440.07C679.273 1441.35 677.537 1442.24 675.2909999999999 1442.01C673.012 1441.78 671.1779999999999 1440.49 671.2109999999999 1439.18C671.2509999999999 1437.9 673.0709999999999 1437.1100000000001 675.2289999999999 1437.3600000000001C677.387 1437.6100000000001 679.1429999999999 1438.8100000000002 679.2069999999999 1440.0700000000002ZM915.396 1463.67L917.02 1463.67L917.02 1464.3300000000002L915.396 1464.3300000000002L915.396 1469.1200000000001C915.396 1469.6000000000001 915.481 1469.95 915.6579999999999 1470.15C915.8329999999999 1470.3500000000001 916.0659999999999 1470.45 916.3569999999999 1470.45C916.4579999999999 1470.45 916.5529999999999 1470.44 916.6459999999998 1470.43C916.7399999999999 1470.42 916.8509999999999 1470.4 916.9769999999999 1470.3700000000001L917.1009999999999 1470.98C916.9919999999998 1471.03 916.8559999999999 1471.08 916.6939999999998 1471.1100000000001C916.5349999999999 1471.14 916.3729999999998 1471.16 916.2119999999999 1471.16C915.6979999999999 1471.16 915.2899999999998 1471 915.0009999999999 1470.67C914.7129999999999 1470.3500000000001 914.5679999999999 1469.8300000000002 914.5679999999999 1469.1200000000001L914.5689999999998 1464.3300000000002L913.2929999999999 1464.3300000000002L913.2929999999999 1463.67L914.5689999999998 1463.67L914.5689999999998 1461.79L915.3959999999998 1461.79ZM756.727 1469.61C757.161 1470.1899999999998 757.764 1470.4799999999998 758.5369999999999 1470.4799999999998C759.2969999999999 1470.4799999999998 759.8929999999999 1470.1899999999998 760.329 1469.61C760.7629999999999 1469.03 760.981 1468.31 760.981 1467.4599999999998L760.981 1467.2299999999998C760.981 1466.3999999999999 760.762 1465.6899999999998 760.324 1465.0999999999997C759.8879999999999 1464.5199999999998 759.2869999999999 1464.2199999999996 758.524 1464.2199999999996C757.76 1464.2199999999996 757.16 1464.5199999999995 756.727 1465.0999999999997C756.297 1465.6899999999996 756.079 1466.3999999999996 756.079 1467.2299999999998L756.079 1467.4599999999998C756.079 1468.3099999999997 756.2959999999999 1469.0299999999997 756.727 1469.61ZM846.923 1455.26L846.923 1435.74L848.415 1435.74L848.415 1455.26ZM768.078 1465.12C767.7139999999999 1464.53 767.175 1464.2399999999998 766.459 1464.2399999999998C765.896 1464.2399999999998 765.4409999999999 1464.3799999999999 765.0939999999999 1464.6499999999999C764.751 1464.9299999999998 764.491 1465.28 764.319 1465.7099999999998L764.319 1469.0799999999997C764.5 1469.4999999999998 764.7679999999999 1469.8399999999997 765.127 1470.0899999999997C765.4839999999999 1470.3299999999997 765.933 1470.4599999999996 766.473 1470.4599999999996C767.1899999999999 1470.4599999999996 767.7249999999999 1470.1899999999996 768.086 1469.6699999999996C768.445 1469.1399999999996 768.624 1468.4399999999996 768.624 1467.5499999999997L768.625 1467.3999999999996C768.625 1466.4699999999996 768.442 1465.6999999999996 768.078 1465.1199999999997ZM872.848 1469.67C873.208 1470.19 873.7479999999999 1470.46 874.4649999999999 1470.46C874.9859999999999 1470.46 875.4209999999999 1470.3400000000001 875.7719999999999 1470.1100000000001C876.127 1469.8700000000001 876.3989999999999 1469.5500000000002 876.5939999999999 1469.14L876.5959999999999 1465.64C876.4089999999999 1465.23 876.1449999999999 1464.89 875.8009999999999 1464.63C875.459 1464.3700000000001 875.0169999999999 1464.24 874.4789999999999 1464.24C873.7629999999999 1464.24 873.2199999999999 1464.53 872.8549999999999 1465.1200000000001C872.4929999999999 1465.71 872.31 1466.47 872.31 1467.4L872.3109999999999 1467.5500000000002C872.3109999999999 1468.4400000000003 872.4899999999999 1469.14 872.848 1469.67ZM685.481 1433.83C685.612 1434.8 684.32 1435.4199999999998 682.58 1435.1899999999998C680.8100000000001 1434.9599999999998 679.3100000000001 1433.9699999999998 679.25 1432.9899999999998C679.19 1432.0399999999997 680.544 1431.4799999999998 682.237 1431.7199999999998C683.93 1431.9499999999998 685.36 1432.8899999999999 685.481 1433.8299999999997ZM874.712 1455.26L874.712 1441.72L876.206 1441.72L876.206 1455.26ZM697.358 1434.73C697.5759999999999 1435.58 696.602 1436.13 695.137 1435.93C693.6719999999999 1435.74 692.332 1434.8700000000001 692.154 1434.01C691.98 1433.17 693.011 1432.66 694.43 1432.87C695.848 1433.07 697.144 1433.8999999999999 697.358 1434.7299999999998ZM706.817 1439.45C707.089 1440.26 706.2860000000001 1440.81 705.002 1440.65C703.7099999999999 1440.5 702.448 1439.68 702.217 1438.8600000000001C701.9789999999999 1438.0500000000002 702.822 1437.5400000000002 704.0749999999999 1437.71C705.3269999999999 1437.8700000000001 706.5409999999999 1438.65 706.8169999999999 1439.45ZM706.596 1445.43C706.854 1446.27 706.078 1446.8500000000001 704.845 1446.72C703.6120000000001 1446.59 702.4100000000001 1445.8 702.181 1444.96C701.956 1444.13 702.774 1443.58 703.9770000000001 1443.71C705.1770000000001 1443.8500000000001 706.3430000000001 1444.6100000000001 706.5960000000001 1445.43ZM807.095 1470C807.5550000000001 1469.7 807.866 1469.32 808.029 1468.85L808.03 1467.4399999999998L806.208 1467.4399999999998C805.543 1467.4399999999998 804.997 1467.6 804.562 1467.9199999999998C804.13 1468.2299999999998 803.915 1468.61 803.915 1469.06C803.9159999999999 1469.47 804.053 1469.81 804.327 1470.06C804.602 1470.31 804.982 1470.44 805.465 1470.44C806.091 1470.44 806.6360000000001 1470.29 807.095 1470ZM852.563 1470C853.024 1469.7 853.334 1469.32 853.4979999999999 1468.85L853.4979999999999 1467.4399999999998L851.6759999999999 1467.4399999999998C851.012 1467.4399999999998 850.4649999999999 1467.6 850.031 1467.9199999999998C849.598 1468.2299999999998 849.3829999999999 1468.61 849.3829999999999 1469.06C849.3839999999999 1469.47 849.521 1469.81 849.7959999999999 1470.06C850.0709999999999 1470.31 850.4499999999999 1470.44 850.9329999999999 1470.44C851.5589999999999 1470.44 852.1039999999999 1470.29 852.5629999999999 1470ZM867.858 1470C868.319 1469.7 868.63 1469.32 868.7929999999999 1468.85L868.7939999999999 1467.4399999999998L866.9719999999999 1467.4399999999998C866.3069999999999 1467.4399999999998 865.7599999999999 1467.6 865.3259999999999 1467.9199999999998C864.8939999999999 1468.2299999999998 864.6789999999999 1468.61 864.6789999999999 1469.06C864.6799999999998 1469.47 864.8169999999999 1469.81 865.0909999999999 1470.06C865.3659999999999 1470.31 865.7459999999999 1470.44 866.2279999999998 1470.44C866.8549999999998 1470.44 867.3989999999999 1470.29 867.8579999999998 1470ZM778.805 1464.9C778.4 1465.3500000000001 778.1619999999999 1465.92 778.0939999999999 1466.6000000000001L778.116 1466.64L782.347 1466.64L782.347 1466.47C782.347 1465.82 782.1759999999999 1465.28 781.831 1464.8600000000001C781.489 1464.44 780.994 1464.22 780.355 1464.22C779.725 1464.22 779.21 1464.45 778.8050000000001 1464.9ZM827.176 1464.9C826.7710000000001 1465.3500000000001 826.533 1465.92 826.465 1466.6000000000001L826.4870000000001 1466.64L830.7180000000001 1466.64L830.7180000000001 1466.47C830.7180000000001 1465.82 830.546 1465.28 830.2020000000001 1464.8600000000001C829.8610000000001 1464.44 829.3660000000001 1464.22 828.7250000000001 1464.22C828.0960000000001 1464.22 827.5810000000001 1464.45 827.1760000000002 1464.9ZM900.325 1464.9C899.921 1465.3500000000001 899.683 1465.92 899.614 1466.6000000000001L899.6370000000001 1466.64L903.8660000000001 1466.64L903.8660000000001 1466.47C903.8660000000001 1465.82 903.6960000000001 1465.28 903.3520000000001 1464.8600000000001C903.0100000000001 1464.44 902.5150000000001 1464.22 901.8760000000001 1464.22C901.2460000000001 1464.22 900.7300000000001 1464.45 900.325 1464.9ZM880.746 1464.9C880.341 1465.3500000000001 880.103 1465.92 880.035 1466.6000000000001L880.057 1466.64L884.2860000000001 1466.64L884.2860000000001 1466.47C884.2860000000001 1465.82 884.1160000000001 1465.28 883.772 1464.8600000000001C883.4300000000001 1464.44 882.9350000000001 1464.22 882.2950000000001 1464.22C881.666 1464.22 881.1500000000001 1464.45 880.7460000000001 1464.9ZM696.876 1444.35C697.0129999999999 1445.02 696.3 1445.48 695.255 1445.37C694.202 1445.26 693.237 1444.62 693.114 1443.9399999999998C692.9920000000001 1443.2699999999998 693.738 1442.83 694.765 1442.9399999999998C695.79 1443.0599999999997 696.729 1443.6799999999998 696.876 1444.35ZM774.554 1471.02L774.554 1460.42L775.365 1460.42L775.365 1471.02ZM792.653 1471.02L792.653 1463.67L793.4730000000001 1463.67L793.4730000000001 1471.02ZM771.382 1471.02L771.382 1463.67L772.1919999999999 1463.67L772.1919999999999 1471.02ZM874.712 1437.84L874.712 1435.74L876.206 1435.74L876.206 1437.84ZM771.382 1461.56L771.382 1460.4199999999998L772.1919999999999 1460.4199999999998L772.1919999999999 1461.56ZM680.094 1463.17C680.3430000000001 1467.79 675.249 1471.72 668.4590000000001 1471.6000000000001C661.369 1471.4900000000002 655.9970000000001 1467.1000000000001 656.652 1462.17C657.244 1457.6100000000001 662.989 1454.51 669.056 1454.91C675.1220000000001 1455.3100000000002 679.845 1458.8700000000001 680.094 1463.17Z " fill="#fff" transform="matrix(1,0,0,1,-643,-1420)">
</path></svg>