<svg id="SvgjsSvg1010" xmlns="http://www.w3.org/2000/svg" version="1.1" xmlns:xlink="http://www.w3.org/1999/xlink" xmlns:svgjs="http://svgjs.com/svgjs" width="49" height="48"><defs id="SvgjsDefs1011"></defs><path id="SvgjsPath1012" d="M307.657 2292.34L309.07099999999997 2293.76L304.828 2298L309.07099999999997 2302.24L307.657 2303.66L302 2298ZM282.531 2298C282.531 2284.74 293.276 2274 306.531 2274C319.786 2274 330.531 2284.74 330.531 2298C330.531 2311.25 319.786 2322 306.531 2322C293.276 2322 282.531 2311.25 282.531 2298ZM283.531 2298C283.531 2310.7 293.829 2321 306.531 2321C319.234 2321 329.531 2310.7 329.531 2298C329.531 2285.3 319.234 2275 306.531 2275C293.829 2275 283.531 2285.3 283.531 2298Z " fill="#67b8ef" transform="matrix(1,0,0,1,-282,-2274)"></path></svg>