<svg id="SvgjsSvg1000" xmlns="http://www.w3.org/2000/svg" version="1.1" xmlns:xlink="http://www.w3.org/1999/xlink" xmlns:svgjs="http://svgjs.com/svgjs" width="30" height="30"><defs id="SvgjsDefs1001"></defs><path id="SvgjsPath1007" d="M1637.96 1024.89L1649.69 1013.2100000000002C1650.25 1012.6500000000002 1650.25 1011.7500000000001 1649.69 1011.1900000000002C1649.13 1010.6300000000002 1648.22 1010.6300000000002 1647.66 1011.1900000000002L1635.93 1022.8600000000001L1624.1000000000001 1011.0200000000001C1623.5400000000002 1010.45 1622.63 1010.45 1622.0700000000002 1011.0200000000001C1621.5100000000002 1011.58 1621.5100000000002 1012.4900000000001 1622.0700000000002 1013.0600000000001L1633.89 1024.89L1622.0200000000002 1036.71C1621.4600000000003 1037.26 1621.4600000000003 1038.17 1622.0200000000002 1038.72C1622.5900000000001 1039.28 1623.5000000000002 1039.28 1624.0600000000002 1038.72L1635.92 1026.92L1647.7 1038.72C1648.26 1039.28 1649.17 1039.28 1649.73 1038.72C1650.3 1038.15 1650.3 1037.24 1649.73 1036.68Z " fill="#b8b9b9" transform="matrix(1,0,0,1,-1621,-1010)"></path></svg>