<svg id="SvgjsSvg1000" xmlns="http://www.w3.org/2000/svg" version="1.1" xmlns:xlink="http://www.w3.org/1999/xlink" xmlns:svgjs="http://svgjs.com/svgjs" width="385" height="524"><defs id="SvgjsDefs1001"></defs><path id="SvgjsPath1007" d="M1430 4177.99L1045 4114L1045 4574.01L1430 4638Z " fill="#dc812e" transform="matrix(1,0,0,1,-1045,-4114)"></path><path id="SvgjsPath1008" d="M1144.57 4582.84C1140.8799999999999 4578.99 1143.1399999999999 4577.5 1149.45 4579.78C1155.77 4582.0599999999995 1163.75 4587.509999999999 1167.46 4591.69C1168.6200000000001 4592.99 1169.21 4593.99 1169.28 4594.669999999999L1160.35 4593.179999999999C1154.49 4590.419999999999 1147.78 4586.179999999999 1144.57 4582.839999999999ZM1162.82 4582.33C1157.03 4580.09 1149.4299999999998 4575.1 1145.9399999999998 4571.05C1142.4499999999998 4566.99 1144.3999999999999 4565.110000000001 1150.1799999999998 4567.02C1155.9399999999998 4568.93 1163.35 4574.17 1166.85 4578.580000000001C1170.32 4582.950000000001 1168.57 4584.580000000001 1162.82 4582.330000000001ZM1170.19 4565.35C1173.63 4570.1 1172.0700000000002 4572.320000000001 1166.6200000000001 4570.410000000001C1161.1100000000001 4568.470000000001 1153.8000000000002 4563.39 1150.3400000000001 4558.990000000001C1146.91 4554.590000000001 1148.63 4552.260000000001 1154.13 4553.840000000001C1159.5900000000001 4555.410000000001 1166.75 4560.600000000001 1170.19 4565.350000000001ZM1120.21 4552.11C1126.49 4553.45 1134.43 4558.23 1138.1000000000001 4562.509999999999C1141.7700000000002 4566.789999999999 1139.72 4568.5599999999995 1133.39 4566.719999999999C1127.0800000000002 4564.879999999999 1118.93 4560.539999999999 1115.3000000000002 4556.759999999999C1111.7100000000003 4552.989999999999 1113.9500000000003 4550.789999999999 1120.2100000000003 4552.11ZM1102.49 4567.45C1094.98 4566.38 1085.53 4563.41 1081.56 4560.16C1077.6399999999999 4556.93 1080.56 4554.08 1087.9299999999998 4554.45C1095.4099999999999 4554.82 1104.62 4558.86 1108.6999999999998 4562.79C1112.7899999999997 4566.76 1110.12 4568.53 1102.4899999999998 4567.45ZM1119.51 4565.53C1125.8 4567.0199999999995 1133.64 4571.54 1137.2 4575.3099999999995C1140.72 4579.07 1138.6000000000001 4580.289999999999 1132.27 4578.389999999999C1125.98 4576.499999999999 1117.91 4572.549999999999 1114.4 4569.219999999999C1110.92 4565.869999999999 1113.26 4564.07 1119.51 4565.53ZM1147.84 4536.04C1151.23 4540.6 1149.6699999999998 4543.25 1144.27 4541.99C1138.86 4540.719999999999 1131.71 4536.389999999999 1128.34 4532.28C1125.04 4528.23 1126.75 4525.57 1132.11 4526.36C1137.4699999999998 4527.16 1144.4699999999998 4531.509999999999 1147.84 4536.04ZM1124.91 4539.45C1130.49 4540.5 1137.68 4544.91 1141.0600000000002 4549.17C1144.4500000000003 4553.45 1142.7200000000003 4555.59 1137.0900000000001 4554.08C1131.4700000000003 4552.57 1124.1000000000001 4548.36 1120.7500000000002 4544.54C1117.4300000000003 4540.75 1119.3300000000002 4538.4 1124.9100000000003 4539.45ZM1090.17 4541.82C1096.68 4542.11 1104.8400000000001 4545.74 1108.48 4549.5199999999995C1112.16 4553.349999999999 1109.89 4555.36 1103.25 4554.419999999999C1096.67 4553.489999999999 1088.34 4550.489999999999 1084.76 4547.3099999999995C1081.26 4544.169999999999 1083.7 4541.53 1090.17 4541.82ZM1197.38 4582.51C1200.45 4586.92 1199.2 4589.09 1194.5400000000002 4587.35C1189.8000000000002 4585.56 1183.4 4580.67 1180.2900000000002 4576.410000000001C1177.1800000000003 4572.130000000001 1178.5400000000002 4569.970000000001 1183.3100000000002 4571.56C1188.0000000000002 4573.150000000001 1194.2800000000002 4578.05 1197.38 4582.51ZM1116.35 4581.37C1112.74 4578.26 1115.33 4576.67 1121.9499999999998 4578.3099999999995C1128.6299999999999 4579.959999999999 1136.84 4584.509999999999 1140.5099999999998 4587.98C1141.4899999999998 4588.9 1142.0199999999998 4589.62 1142.1699999999998 4590.16L1128.6799999999998 4587.92C1123.7199999999998 4585.95 1118.86 4583.5 1116.35 4581.37ZM1103.91 4579.25L1103.91 4579.26C1096.7 4578.33 1087.65 4575.83 1083.91 4572.9800000000005C1080.18 4570.13 1083.0600000000002 4567.56 1090.18 4567.990000000001C1097.4 4568.43 1106.23 4572.080000000001 1110.0700000000002 4575.450000000001C1113.9 4578.81 1111.2500000000002 4580.210000000001 1103.91 4579.250000000001ZM1175.91 4551.8C1178.99 4556.38 1177.73 4558.96 1173.0500000000002 4557.58C1168.3100000000002 4556.17 1161.92 4551.5199999999995 1158.8200000000002 4547.22C1155.7400000000002 4542.9400000000005 1157.1000000000001 4540.39 1161.8400000000001 4541.52C1166.5400000000002 4542.63 1172.8000000000002 4547.240000000001 1175.91 4551.8ZM1058.02 4550.67C1065.2 4549.42 1074.08 4551.54 1077.87 4554.67C1081.7099999999998 4557.85 1078.9099999999999 4560.2 1071.51 4560.72C1064.18 4561.21 1055.26 4560.27 1051.59 4557.85C1048.04 4555.4400000000005 1050.87 4551.92 1058.02 4550.67ZM1095.24 4529.05C1101.07 4529.25 1108.46 4532.58 1111.81 4536.28C1115.22 4540.04 1113.26 4542.28 1107.32 4541.5C1101.4299999999998 4540.71 1093.8899999999999 4537.71 1090.58 4534.54C1087.33 4531.43 1089.4499999999998 4528.87 1095.24 4529.05ZM1176.44 4588.47C1173.3700000000001 4584.650000000001 1174.9 4583.06 1179.76 4585C1184.58 4586.89 1190.9 4591.71 1193.95 4595.69C1195.0900000000001 4597.169999999999 1195.6000000000001 4598.299999999999 1195.55 4599.03L1188.36 4597.84C1183.9699999999998 4595.46 1179.01 4591.64 1176.4399999999998 4588.47ZM1065.43 4524.12C1071.94 4522.97 1080.15 4524.99 1083.73 4528.24C1087.43 4531.599999999999 1084.99 4534.2699999999995 1078.25 4534.59C1071.56 4534.92 1063.3 4533.47 1059.79 4530.9400000000005C1056.43 4528.490000000001 1058.92 4525.280000000001 1065.43 4524.120000000001ZM1060.55 4537.54C1067.1299999999999 4536.41 1075.31 4538.41 1078.87 4541.46C1082.4699999999998 4544.6 1079.9499999999998 4547.01 1073.1599999999999 4547.39C1066.4299999999998 4547.780000000001 1058.1799999999998 4546.6 1054.7399999999998 4544.21C1051.4199999999998 4541.87 1053.9899999999998 4538.66 1060.5499999999997 4537.54ZM1117.8 4523.12C1120.84 4526.67 1119.21 4529 1114.08 4528.44C1108.97 4527.879999999999 1102.36 4525.009999999999 1099.3799999999999 4521.96C1096.4599999999998 4518.97 1098.1999999999998 4516.53 1103.2399999999998 4516.6C1108.2899999999997 4516.68 1114.7799999999997 4519.650000000001 1117.7999999999997 4523.120000000001ZM1209.28 4594.56C1206.6 4590.75 1207.6299999999999 4588.740000000001 1211.56 4590.01C1215.4299999999998 4591.280000000001 1220.6799999999998 4595.39 1223.33 4599.24C1224.8899999999999 4601.5 1225.1699999999998 4603.13 1224.34 4603.82L1219.3 4602.98C1215.71 4601.19 1211.53 4597.74 1209.28 4594.5599999999995ZM1054.07 4570.92C1050.8999999999999 4568.83 1053.45 4565.7300000000005 1059.85 4564.64C1066.27 4563.55 1074.1699999999998 4565.280000000001 1077.51 4567.83C1080.85 4570.4 1078.3 4572.42 1071.73 4573.05C1065.22 4573.66 1057.32 4573.01 1054.07 4570.92ZM1425.42 4635.35C1421.96 4636.950000000001 1416.8700000000001 4635.93 1413.96 4632.1C1411 4628.18 1411.39 4622.09 1414.8 4621.77C1418.12 4621.47 1423.12 4624.31 1426.02 4627.38C1429 4630.55 1428.66 4633.84 1425.42 4635.35ZM1391.84 4630.88C1396.29 4625.33 1403.82 4620.17 1406.82 4623.81C1409.31 4626.84 1409.84 4630.830000000001 1408.77 4634.47L1391.31 4631.570000000001C1391.48 4631.340000000001 1391.6499999999999 4631.110000000001 1391.84 4630.880000000001ZM1088.59 4515.29C1091.49 4517.98 1089.6599999999999 4520.3 1084.51 4520.62C1079.36 4520.93 1072.94 4519.58 1070.15 4517.43C1067.46 4515.35 1069.3400000000001 4512.860000000001 1074.3700000000001 4512C1079.39 4511.13 1085.7700000000002 4512.67 1088.5900000000001 4515.29ZM1152.28 4527.39C1148.7 4526.75 1143.8899999999999 4523.740000000001 1141.57 4520.67C1139.27 4517.62 1140.31 4515.52 1143.8799999999999 4515.9400000000005C1147.4399999999998 4516.34 1152.1799999999998 4519.3 1154.4999999999998 4522.55C1156.8299999999997 4525.84 1155.8599999999997 4528.01 1152.2799999999997 4527.39ZM1062.03 4513.26C1065.29 4515.45 1062.87 4518.33 1056.73 4519.9800000000005C1052.82 4521.02 1048.45 4521.570000000001 1045 4521.500000000001L1045 4514.030000000001C1045.21 4513.9400000000005 1045.41 4513.85 1045.62 4513.76C1051.51 4511.33 1058.9199999999998 4511.21 1062.03 4513.26ZM1094.29 4507.88C1089.51 4508.2300000000005 1083.47 4506.8 1080.79 4504.64C1078.23 4502.56 1079.8999999999999 4500.18 1084.59 4499.34C1089.26 4498.5 1095.23 4499.9400000000005 1097.9299999999998 4502.49C1100.6999999999998 4505.139999999999 1099.07 4507.55 1094.2899999999997 4507.88ZM1125.74 4510.15C1128.21 4513.129999999999 1126.99 4515.299999999999 1122.99 4515C1118.97 4514.7 1113.74 4512.3 1111.3 4509.63C1108.9199999999998 4507.03 1110.21 4504.900000000001 1114.18 4504.89C1118.14 4504.87 1123.3 4507.2300000000005 1125.74 4510.150000000001ZM1181.24 4542.9C1178.14 4542.219999999999 1173.91 4539.0599999999995 1171.78 4535.889999999999C1169.69 4532.719999999999 1170.49 4530.65 1173.59 4531.2C1176.6799999999998 4531.76 1180.87 4534.84 1182.98 4538.12C1185.09 4541.42 1184.33 4543.57 1181.24 4542.9ZM1430 4602.95C1429.97 4602.97 1429.94 4603 1429.91 4603.0199999999995C1426.5800000000002 4605.349999999999 1421.25 4605.91 1418.22 4604.429999999999C1415.13 4602.909999999999 1415.52 4599.5599999999995 1418.8700000000001 4596.909999999999C1422.15 4594.299999999999 1426.9 4593.499999999999 1430.0000000000002 4595.009999999999ZM1417.23 4609.15C1420.78 4610.5199999999995 1420.6200000000001 4612.95 1416.68 4614.339999999999C1412.79 4615.719999999999 1406.5900000000001 4616.2699999999995 1403 4615.619999999999C1399.38 4614.959999999999 1399.8 4612.569999999999 1403.72 4610.479999999999C1407.69 4608.359999999999 1413.65 4607.769999999999 1417.23 4609.149999999999ZM1199.45 4572.09C1196.67 4571.27 1192.8700000000001 4568.26 1190.97 4565.39C1189.06 4562.51 1189.78 4560.820000000001 1192.57 4561.570000000001C1195.33 4562.330000000001 1199.1 4565.320000000001 1201 4568.250000000001C1202.89 4571.180000000001 1202.2 4572.910000000001 1199.45 4572.090000000001ZM1407.26 4618.44C1407.8 4618.469999999999 1408.35 4618.509999999999 1408.9 4618.5599999999995C1407.51 4618.65 1406.1200000000001 4618.789999999999 1404.8100000000002 4618.98C1404.5500000000002 4619.0199999999995 1404.3200000000002 4619.0599999999995 1404.0300000000002 4619.11C1399.7100000000003 4619.83 1393.0200000000002 4622.87 1389.0600000000002 4623.83C1385.2100000000003 4624.74 1385.5600000000002 4622.99 1389.91 4621.07C1394.14 4619.21 1400.68 4618.179999999999 1404.5600000000002 4618.21C1406.66 4618.22 1407.5300000000002 4618.28 1407.2600000000002 4618.44ZM1194.65 4525.3C1196.51 4528.31 1195.91 4530.52 1193.3200000000002 4530.1900000000005C1190.7300000000002 4529.85 1187.14 4527.150000000001 1185.2700000000002 4524.22C1183.4400000000003 4521.29 1184.0600000000002 4519.17 1186.6600000000003 4519.4400000000005C1189.2400000000002 4519.6900000000005 1192.8200000000004 4522.3 1194.6500000000003 4525.3ZM1065.18 4505.95C1060.88 4507.139999999999 1055.68 4507.3 1053.5 4506.24C1051.41 4505.25 1053.04 4503.12 1057.23 4501.5C1061.38 4499.9 1066.6200000000001 4499.78 1068.81 4501.18C1071.11 4502.650000000001 1069.46 4504.76 1065.1799999999998 4505.950000000001ZM1054.19 4526.53C1057.3500000000001 4528.63 1054.8700000000001 4531.44 1048.76 4533.179999999999C1047.54 4533.53 1046.27 4533.829999999999 1045 4534.089999999999L1045 4525.2699999999995C1048.8 4524.849999999999 1052.31 4525.29 1054.19 4526.53ZM1394.87 4602.5C1397.4799999999998 4600.72 1401.32 4600.45 1403.61 4601.85C1405.84 4603.21 1405.6499999999999 4605.55 1403.06 4607.120000000001C1400.49 4608.670000000001 1396.5 4609.06 1394.26 4607.910000000001C1391.97 4606.7300000000005 1392.3 4604.260000000001 1394.87 4602.500000000001ZM1210.23 4555.02C1211.82 4557.64 1211.31 4559.43 1209.09 4558.9800000000005C1206.86 4558.530000000001 1203.76 4556.040000000001 1202.1599999999999 4553.47C1200.57 4550.89 1201.1 4549.150000000001 1203.34 4549.56C1205.56 4549.96 1208.6499999999999 4552.400000000001 1210.23 4555.02ZM1428.64 4615.83C1429.2 4616.01 1429.63 4616.2 1430 4616.4L1430 4618.7C1429.57 4618.86 1429.05 4618.99 1428.37 4619.0599999999995C1424.7299999999998 4619.429999999999 1419.02 4618.509999999999 1415.4699999999998 4618.12C1412.0299999999997 4617.75 1412.1799999999998 4617.05 1415.85 4616.07C1419.51 4615.09 1425.23 4614.79 1428.6399999999999 4615.83ZM1386.12 4630.71L1378.1899999999998 4629.39C1381.33 4627.820000000001 1384.6499999999999 4626.610000000001 1386.8999999999999 4625.990000000001C1390.4699999999998 4625.000000000001 1390.0099999999998 4626.630000000001 1386.12 4630.710000000001ZM1226.71 4584.92C1227.91 4586.81 1227.52 4588.02 1225.8400000000001 4587.61C1224.14 4587.19 1221.7700000000002 4585.32 1220.5700000000002 4583.44C1219.3500000000001 4581.549999999999 1219.7600000000002 4580.36 1221.4600000000003 4580.7699999999995C1223.1600000000003 4581.169999999999 1225.5100000000002 4583.0199999999995 1226.7100000000003 4584.919999999999ZM1248.28 4596.76C1249.82 4596.97 1251.96 4598.530000000001 1253.09 4600.26C1254.22 4601.9800000000005 1253.8899999999999 4603.22 1252.37 4603.02C1250.83 4602.820000000001 1248.6699999999998 4601.240000000001 1247.54 4599.51C1246.3999999999999 4597.780000000001 1246.75 4596.55 1248.28 4596.76ZM1426.76 4621.19C1427.71 4621.24 1428.82 4621.349999999999 1430 4621.509999999999L1430 4627.829999999999C1428.69 4627.089999999999 1427.45 4626.239999999999 1426.4 4625.279999999999C1422.94 4622.089999999999 1422.8600000000001 4620.979999999999 1426.76 4621.189999999999ZM1045 4559.7L1045 4551.79C1046.31 4552.07 1047.44 4552.48 1048.28 4553.03C1051.34 4555.0199999999995 1049.76 4557.55 1045 4559.7ZM1045 4545.95L1045 4538.92C1046.45 4539.13 1047.68 4539.51 1048.55 4540.07C1051.26 4541.82 1049.6 4544.16 1045 4545.95ZM1286.39 4600.06C1285.3700000000001 4598.51 1285.6100000000001 4597.09 1286.92 4596.860000000001C1288.23 4596.650000000001 1290.0900000000001 4597.700000000001 1291.1100000000001 4599.2300000000005C1292.1100000000001 4600.76 1291.88 4602.18 1290.5900000000001 4602.410000000001C1289.2800000000002 4602.660000000001 1287.4 4601.590000000001 1286.39 4600.06ZM1235.98 4574.31C1234.72 4574.150000000001 1232.94 4572.76 1232.02 4571.1900000000005C1231.08 4569.63 1231.35 4568.500000000001 1232.61 4568.660000000001C1233.87 4568.81 1235.6399999999999 4570.200000000001 1236.57 4571.77C1237.5 4573.330000000001 1237.23 4574.4800000000005 1235.98 4574.31ZM1133.75 4497.58C1134.79 4498.87 1134.32 4499.9 1132.66 4499.87C1131 4499.83 1128.8100000000002 4498.8099999999995 1127.77 4497.58C1126.73 4496.36 1127.22 4495.35 1128.87 4495.33C1130.52 4495.3 1132.7099999999998 4496.3 1133.75 4497.58ZM1221.39 4542.12C1222.2800000000002 4543.68 1222.0300000000002 4544.87 1220.8200000000002 4544.7699999999995C1219.6100000000001 4544.66 1217.91 4543.3099999999995 1217.0000000000002 4541.759999999999C1216.1000000000001 4540.209999999999 1216.3600000000001 4539.049999999999 1217.5700000000002 4539.129999999999C1218.7800000000002 4539.23 1220.4800000000002 4540.5599999999995 1221.39 4542.119999999999ZM1103.52 4492.85C1101.6299999999999 4493.08 1099.22 4492.46 1098.11 4491.490000000001C1097.03 4490.550000000001 1097.6699999999998 4489.530000000001 1099.54 4489.2300000000005C1101.4099999999999 4488.93 1103.82 4489.51 1104.92 4490.540000000001C1106.03 4491.600000000001 1105.41 4492.640000000001 1103.52 4492.850000000001ZM1263.84 4587.05C1264.74 4588.53 1264.51 4589.72 1263.33 4589.7300000000005C1262.1499999999999 4589.740000000001 1260.46 4588.530000000001 1259.56 4587.06C1258.6499999999999 4585.570000000001 1258.8999999999999 4584.38 1260.08 4584.39C1261.26 4584.38 1262.9399999999998 4585.58 1263.84 4587.05ZM1352.83 4587.18C1351.8799999999999 4585.950000000001 1352.06 4584.29 1353.1999999999998 4583.4800000000005C1354.36 4582.67 1356.0499999999997 4583.02 1357.0099999999998 4584.26C1357.9399999999998 4585.49 1357.7899999999997 4587.12 1356.6399999999999 4587.92C1355.4899999999998 4588.72 1353.79 4588.39 1352.83 4587.18ZM1279.66 4613.01L1272.64 4611.85C1271.94 4610.360000000001 1272.4 4609.240000000001 1273.8700000000001 4609.21C1275.5900000000001 4609.19 1278.0300000000002 4610.64 1279.3400000000001 4612.4800000000005C1279.46 4612.660000000001 1279.5600000000002 4612.84 1279.66 4613.01ZM1246.39 4556.33C1247.51 4556.32 1249.0900000000001 4557.53 1249.94 4559.04C1250.79 4560.55 1250.5800000000002 4561.79 1249.47 4561.81C1248.3600000000001 4561.830000000001 1246.76 4560.6 1245.91 4559.1C1245.0600000000002 4557.58 1245.28 4556.360000000001 1246.39 4556.33ZM1382.99 4618.72C1384.75 4617.83 1387.4 4617.45 1388.94 4617.75C1390.47 4618.07 1390.3200000000002 4618.86 1388.5700000000002 4619.67C1386.8000000000002 4620.49 1384.1100000000001 4621.09 1382.5700000000002 4620.87C1381.0400000000002 4620.65 1381.2300000000002 4619.63 1382.9900000000002 4618.72ZM1147.63 4485.58C1148.5800000000002 4486.79 1148.18 4487.82 1146.74 4487.86C1145.28 4487.91 1143.33 4486.99 1142.38 4485.82C1141.43 4484.67 1141.8400000000001 4483.67 1143.2900000000002 4483.59C1144.7400000000002 4483.5 1146.6900000000003 4484.39 1147.63 4485.58ZM1274.36 4574.92C1273.52 4573.46 1273.7099999999998 4572.13 1274.79 4571.96C1275.86 4571.79 1277.42 4572.82 1278.27 4574.28C1279.09 4575.73 1278.91 4577.0599999999995 1277.84 4577.24C1276.77 4577.41 1275.2099999999998 4576.38 1274.36 4574.92ZM1373.01 4611.85C1374.43 4611.01 1376.52 4610.92 1377.73 4611.610000000001C1378.92 4612.280000000001 1378.77 4613.420000000001 1377.3600000000001 4614.2300000000005C1375.94 4615.030000000001 1373.8000000000002 4615.22 1372.6200000000001 4614.580000000001C1371.4 4613.930000000001 1371.5900000000001 4612.680000000001 1373.0100000000002 4611.850000000001ZM1321.82 4576.79C1320.97 4575.43 1321.1399999999999 4573.88 1322.1799999999998 4573.33C1323.2099999999998 4572.7699999999995 1324.7299999999998 4573.42 1325.57 4574.78C1326.4099999999999 4576.11 1326.26 4577.66 1325.22 4578.219999999999C1324.18 4578.78 1322.65 4578.129999999999 1321.82 4576.789999999999ZM1202.93 4512.87C1202.15 4511.55 1202.38 4510.51 1203.45 4510.5199999999995C1204.51 4510.5199999999995 1206 4511.599999999999 1206.79 4512.929999999999C1207.57 4514.2699999999995 1207.35 4515.32 1206.29 4515.3099999999995C1205.22 4515.28 1203.73 4514.19 1202.93 4512.87ZM1346.67 4564.11C1347.44 4565.33 1347.3000000000002 4566.88 1346.3600000000001 4567.57C1345.42 4568.259999999999 1344.0400000000002 4567.82 1343.2700000000002 4566.599999999999C1342.5000000000002 4565.37 1342.64 4563.8099999999995 1343.5800000000002 4563.12C1344.5200000000002 4562.43 1345.9 4562.87 1346.67 4564.11ZM1335.51 4598.39C1334.46 4598.950000000001 1332.9 4598.5 1332.05 4597.39C1331.18 4596.26 1331.36 4594.900000000001 1332.4199999999998 4594.35C1333.4799999999998 4593.79 1335.0199999999998 4594.26 1335.8799999999999 4595.38C1336.7199999999998 4596.49 1336.57 4597.83 1335.51 4598.39ZM1236.4 4529.91C1237.14 4531.2699999999995 1236.96 4532.42 1235.99 4532.47C1235.01 4532.52 1233.59 4531.45 1232.85 4530.09C1232.11 4528.74 1232.29 4527.6 1233.27 4527.55C1234.25 4527.49 1235.65 4528.55 1236.4 4529.91ZM1097.4 4582.28C1100.13 4582.469999999999 1103.17 4583.179999999999 1105.8600000000001 4584.13L1094.7600000000002 4582.28C1095.5200000000002 4582.219999999999 1096.4000000000003 4582.21 1097.4000000000003 4582.28ZM1050.19 4495.83C1051.21 4496.0199999999995 1050.3200000000002 4497.07 1048.22 4498.15C1047.16 4498.7 1046.01 4499.17 1045 4499.5L1045 4497.48C1046.98 4496.4 1049.26 4495.66 1050.19 4495.83ZM1314.46 4606.37C1315.53 4605.98 1317.07 4606.55 1317.92 4607.64C1318.77 4608.700000000001 1318.6000000000001 4609.88 1317.52 4610.280000000001C1316.46 4610.670000000001 1314.9 4610.120000000001 1314.06 4609.040000000001C1313.21 4607.9400000000005 1313.3999999999999 4606.750000000001 1314.46 4606.370000000001ZM1220.44 4499.18C1221.4 4499.09 1222.77 4500.02 1223.49 4501.29C1224.22 4502.56 1224.04 4503.69 1223.07 4503.79C1222.12 4503.88 1220.75 4502.92 1220.02 4501.64C1219.29 4500.39 1219.48 4499.280000000001 1220.44 4499.18ZM1071.59 4490.01C1073.3 4489.41 1075.4399999999998 4489.360000000001 1076.35 4489.91C1077.29 4490.46 1076.6399999999999 4491.34 1074.9099999999999 4491.86C1073.1699999999998 4492.389999999999 1071.04 4492.41 1070.11 4491.94C1069.2199999999998 4491.46 1069.87 4490.61 1071.59 4490.009999999999ZM1346.34 4611.61C1347.23 4612.44 1347.08 4613.58 1345.97 4614.16C1344.8700000000001 4614.74 1343.24 4614.54 1342.34 4613.7C1341.4299999999998 4612.849999999999 1341.6 4611.679999999999 1342.7099999999998 4611.099999999999C1343.8199999999997 4610.5199999999995 1345.4299999999998 4610.759999999999 1346.34 4611.61ZM1112.97 4479.44C1112.1100000000001 4478.66 1112.58 4477.839999999999 1114.02 4477.58C1115.46 4477.34 1117.33 4477.78 1118.19 4478.6C1119.0700000000002 4479.4400000000005 1118.6100000000001 4480.3 1117.17 4480.51C1115.72 4480.72 1113.8500000000001 4480.2300000000005 1112.97 4479.4400000000005ZM1250.98 4516.3C1251.83 4516.13 1253.06 4517 1253.74 4518.26C1254.41 4519.51 1254.25 4520.68 1253.41 4520.85C1252.5600000000002 4521.030000000001 1251.3200000000002 4520.14 1250.64 4518.88C1249.98 4517.63 1250.1200000000001 4516.49 1250.98 4516.3ZM1306.38 4586.74C1307.0900000000001 4587.849999999999 1306.95 4589.01 1306.0500000000002 4589.33C1305.17 4589.63 1303.8600000000001 4588.98 1303.14 4587.86C1302.42 4586.73 1302.5800000000002 4585.57 1303.47 4585.259999999999C1304.3700000000001 4584.959999999999 1305.67 4585.61 1306.38 4586.739999999999ZM1262.96 4544.9C1263.81 4544.74 1265.03 4545.62 1265.69 4546.849999999999C1266.3600000000001 4548.079999999999 1266.21 4549.2 1265.3700000000001 4549.349999999999C1264.5300000000002 4549.499999999999 1263.3100000000002 4548.62 1262.64 4547.379999999999C1261.98 4546.159999999999 1262.1200000000001 4545.039999999999 1262.96 4544.9ZM1062.87 4483.94C1063.61 4484.04 1062.9799999999998 4484.759999999999 1061.4799999999998 4485.5199999999995C1059.9699999999998 4486.28 1058.1599999999999 4486.83 1057.4299999999998 4486.79C1056.7199999999998 4486.74 1057.34 4486.06 1058.85 4485.25C1060.33 4484.43 1062.1299999999999 4483.84 1062.87 4483.94ZM1292.25 4563.25C1291.61 4562.1 1291.73 4560.95 1292.54 4560.67C1293.34 4560.39 1294.5 4561.1 1295.1399999999999 4562.25C1295.78 4563.39 1295.6499999999999 4564.54 1294.86 4564.81C1294.05 4565.1 1292.8899999999999 4564.39 1292.25 4563.25ZM1089.86 4477.83C1090.6899999999998 4478.32 1090.1399999999999 4479.11 1088.6299999999999 4479.5599999999995C1087.1299999999999 4480.03 1085.2399999999998 4480.03 1084.4199999999998 4479.589999999999C1083.61 4479.169999999999 1084.1699999999998 4478.429999999999 1085.6699999999998 4477.919999999999C1087.1599999999999 4477.389999999999 1089.0299999999997 4477.359999999999 1089.86 4477.829999999999ZM1415.61 4618.73C1419.4599999999998 4619.339999999999 1419.12 4620.58 1415.29 4619.709999999999C1413.54 4619.319999999999 1411.24 4618.8099999999995 1408.8999999999999 4618.5599999999995C1411.3899999999999 4618.41 1413.84 4618.45 1415.61 4618.73ZM1151.9 4591.7C1152 4591.74 1152.1100000000001 4591.79 1152.22 4591.83L1144.21 4590.5C1145.08 4589.82 1147.78 4590.14 1151.9 4591.7ZM1045 4572.04L1045 4566.71C1045.45 4566.87 1045.86 4567.05 1046.2 4567.27C1048.31 4568.580000000001 1047.65 4570.35 1045 4572.040000000001ZM1049.11 4486.88C1050.1799999999998 4486.11 1051.4299999999998 4485.3 1051.8999999999999 4485.08C1052.36 4484.86 1051.87 4485.29 1050.78 4486.03C1049.69 4486.78 1048.44 4487.58 1047.99 4487.82C1047.53 4488.08 1048.04 4487.65 1049.11 4486.88ZM1100.29 4467.75C1099.58 4467.38 1100.04 4466.73 1101.33 4466.29C1102.61 4465.85 1104.25 4465.82 1104.97 4466.24C1105.72 4466.65 1105.25 4467.33 1103.96 4467.73C1102.66 4468.129999999999 1101.03 4468.139999999999 1100.29 4467.75ZM1064.43 4475.74C1064.02 4475.98 1064.45 4475.679999999999 1065.39 4475.05C1066.3200000000002 4474.42 1067.42 4473.72 1067.8400000000001 4473.5C1068.2500000000002 4473.28 1067.8300000000002 4473.6 1066.89 4474.21C1065.95 4474.83 1064.8400000000001 4475.5 1064.43 4475.74ZM1283.69 4535.4C1284.14 4536.28 1284.05 4537.16 1283.49 4537.36C1282.91 4537.57 1282.08 4537.0199999999995 1281.61 4536.139999999999C1281.1499999999999 4535.259999999999 1281.24 4534.379999999999 1281.82 4534.179999999999C1282.3799999999999 4533.99 1283.21 4534.5199999999995 1283.6899999999998 4535.4ZM1074.42 4473.29C1075.5 4472.74 1076.8100000000002 4472.32 1077.3400000000001 4472.36C1077.89 4472.41 1077.45 4472.9 1076.3600000000001 4473.429999999999C1075.2800000000002 4473.959999999999 1073.96 4474.36 1073.43 4474.329999999999C1072.9 4474.309999999999 1073.3400000000001 4473.849999999999 1074.42 4473.289999999999ZM1091.01 4461.85C1092.04 4461.35 1093.28 4460.950000000001 1093.81 4460.9800000000005C1094.34 4461.01 1093.9299999999998 4461.4400000000005 1092.8999999999999 4461.92C1091.8799999999999 4462.41 1090.62 4462.78 1090.1 4462.76C1089.58 4462.75 1090 4462.360000000001 1091.01 4461.85ZM1371.25 4627.41C1372.37 4627.53 1372.85 4627.91 1372.72 4628.48L1367.7 4627.639999999999C1369.03 4627.4 1370.29 4627.299999999999 1371.25 4627.41ZM1161.1 4510.38C1160.53 4510.32 1159.75 4509.84 1159.3799999999999 4509.29C1158.9899999999998 4508.74 1159.1399999999999 4508.34 1159.7099999999998 4508.39C1160.2799999999997 4508.43 1161.0399999999997 4508.910000000001 1161.4299999999998 4509.47C1161.81 4510.030000000001 1161.6699999999998 4510.43 1161.1 4510.38ZM1182.13 4459.15C1181.7 4459.29 1181.5100000000002 4459.03 1181.7 4458.58C1181.9 4458.14 1182.41 4457.66 1182.8500000000001 4457.53C1183.2900000000002 4457.4 1183.47 4457.65 1183.2900000000002 4458.099999999999C1183.0800000000002 4458.549999999999 1182.5700000000002 4459.03 1182.13 4459.15ZM1334.43 4541.97C1334.17 4541.5 1334.22 4540.93 1334.53 4540.6900000000005C1334.85 4540.460000000001 1335.32 4540.64 1335.57 4541.110000000001C1335.83 4541.580000000001 1335.79 4542.150000000001 1335.47 4542.39C1335.15 4542.62 1334.69 4542.43 1334.43 4541.97ZM1197.85 4466.85C1197.4499999999998 4466.9400000000005 1197.29 4466.71 1197.48 4466.33C1197.68 4465.95 1198.16 4465.57 1198.55 4465.46C1198.95 4465.38 1199.12 4465.61 1198.9199999999998 4465.99C1198.7299999999998 4466.38 1198.2499999999998 4466.76 1197.85 4466.849999999999ZM1058.85 4481.94C1058.4499999999998 4482.259999999999 1058.25 4482.349999999999 1058.3999999999999 4482.139999999999C1058.55 4481.94 1059.0099999999998 4481.5199999999995 1059.4099999999999 4481.209999999999C1059.81 4480.889999999999 1060.0299999999997 4480.799999999999 1059.85 4480.999999999999C1059.7099999999998 4481.209999999999 1059.26 4481.629999999999 1058.85 4481.939999999999ZM1083.2686 4463.47102C1083.8907000000002 4463.0794 1084.5176000000001 4462.69252 1084.7900000000002 4462.5199999999995C1085.1200000000001 4462.32 1084.8000000000002 4462.53 1084.0600000000002 4462.99C1083.80346 4463.15034 1083.5276400000002 4463.31068 1083.2686 4463.47102ZM1162.48 4465.16C1162.8 4465.03 1162.95 4465.2 1162.81 4465.5199999999995C1162.6799999999998 4465.849999999999 1162.32 4466.2 1161.99 4466.33C1161.67 4466.46 1161.52 4466.29 1161.65 4465.97C1161.7900000000002 4465.64 1162.16 4465.280000000001 1162.48 4465.16ZM1240.16 4476.42C1240.47 4476.25 1241.13 4476.04 1241.6200000000001 4475.91C1242.1200000000001 4475.79 1242.2600000000002 4475.83 1241.95 4475.99C1241.64 4476.139999999999 1240.99 4476.36 1240.49 4476.48C1240 4476.61 1239.85 4476.58 1240.16 4476.419999999999ZM1177.93 4473.57C1177.6200000000001 4473.66 1177.49 4473.509999999999 1177.63 4473.21C1177.7700000000002 4472.91 1178.13 4472.6 1178.44 4472.5C1178.75 4472.41 1178.89 4472.57 1178.74 4472.87C1178.61 4473.16 1178.24 4473.48 1177.93 4473.57ZM1312.99 4551.9C1312.81 4551.5599999999995 1312.85 4551.2 1313.07 4551.08C1313.3 4550.95 1313.62 4551.13 1313.8 4551.46C1313.99 4551.78 1313.96 4552.16 1313.74 4552.28C1313.51 4552.4 1313.18 4552.23 1312.99 4551.9ZM1118.76 4456.03C1118.51 4455.889999999999 1118.66 4455.679999999999 1119.1 4455.53C1119.53 4455.38 1120.1 4455.37 1120.35 4455.509999999999C1120.61 4455.65 1120.4599999999998 4455.879999999999 1120.03 4456.0199999999995C1119.59 4456.16 1119.02 4456.16 1118.76 4456.03ZM1157.95 4480.56C1158.06 4480.34 1158.3 4480.110000000001 1158.51 4480.030000000001C1158.73 4479.9400000000005 1158.81 4480.040000000001 1158.74 4480.250000000001C1158.64 4480.460000000001 1158.4 4480.680000000001 1158.18 4480.770000000001C1157.96 4480.830000000002 1157.8600000000001 4480.760000000001 1157.95 4480.560000000001ZM1271.3 4507.84C1271.18 4507.6 1271.2 4507.37 1271.36 4507.3C1271.52 4507.24 1271.75 4507.400000000001 1271.87 4507.63C1272 4507.88 1271.9799999999998 4508.12 1271.82 4508.18C1271.6599999999999 4508.240000000001 1271.4299999999998 4508.09 1271.3 4507.84ZM1082.1 4464.18C1082.2590599999999 4464.079540000001 1082.54426 4463.90901 1082.87934 4463.70945C1082.86939 4463.716280000001 1082.8596 4463.72314 1082.85 4463.7300000000005C1082.11 4464.18 1081.76 4464.39 1082.1 4464.18ZM1430 4612.07C1429.61 4611.599999999999 1429.62 4611.0599999999995 1430 4610.49ZM1174.62 4497.53C1174.51 4497.36 1174.55 4497.23 1174.7099999999998 4497.23C1174.86 4497.24 1175.09 4497.37 1175.1899999999998 4497.54C1175.3099999999997 4497.71 1175.2699999999998 4497.84 1175.11 4497.84C1174.9499999999998 4497.84 1174.74 4497.7 1174.62 4497.53ZM1174.25 4595.49C1174.65 4595.51 1175.12 4595.59 1175.66 4595.73ZM1131.17 4467.31C1131.3200000000002 4467.280000000001 1131.54 4467.34 1131.64 4467.43C1131.74 4467.530000000001 1131.7 4467.63 1131.5300000000002 4467.66C1131.3700000000001 4467.68 1131.1600000000003 4467.63 1131.0500000000002 4467.54C1130.9600000000003 4467.44 1131.0100000000002 4467.34 1131.17 4467.31ZM1302.83 4525.25C1302.76 4525.09 1302.86 4524.86 1302.86 4524.86C1302.86 4524.86 1303.12 4524.889999999999 1303.1999999999998 4525.049999999999C1303.2799999999997 4525.199999999999 1303.1699999999998 4525.429999999999 1303.1699999999998 4525.429999999999C1303.1699999999998 4525.429999999999 1302.9199999999998 4525.4 1302.83 4525.249999999999ZM1138.53 4488.34C1138.57 4488.24 1138.78 4488.09 1138.78 4488.09C1138.78 4488.09 1138.93 4488.09 1138.8899999999999 4488.18C1138.86 4488.27 1138.6399999999999 4488.42 1138.6399999999999 4488.42C1138.6399999999999 4488.42 1138.4999999999998 4488.43 1138.53 4488.34ZM1191.24 4486L1191.43 4486.11L1191.4 4486.24L1191.21 4486.13ZM1083.08 4463.59C1083.0115999999998 4463.63071 1082.94453 4463.6706300000005 1082.87934 4463.70945C1082.94194 4463.66647 1083.01097 4463.624510000001 1083.08 4463.59ZM1083.2686 4463.47102C1083.20556 4463.51071 1083.1425700000002 4463.55044 1083.0800000000002 4463.59C1083.1414800000002 4463.55034 1083.2045200000002 4463.51068 1083.2686 4463.47102ZM1173.96 4485.7L1174 4485.74L1173.87 4485.83L1173.83 4485.79ZM1045 4507.05L1045 4506.570000000001C1045.04 4506.72 1045.04 4506.880000000001 1045 4507.05ZM1240.45 4490.63L1240.3600000000001 4490.58L1240.38 4490.5L1240.46 4490.56ZM1260.54 4480.19L1260.62 4480.24L1260.62 4480.33L1260.53 4480.28ZM1281.99 4470.53L1282.07 4470.58L1282.06 4470.67L1281.98 4470.63ZM1161.02 4474.21L1161.12 4474.26L1161.1 4474.31L1161 4474.27ZM1142.24 4473.65L1142.28 4473.679999999999L1142.2 4473.73L1142.17 4473.709999999999ZM1154.45 4493.03L1154.47 4493.05L1154.41 4493.1L1154.39 4493.08ZM1109.68 4450.92L1109.76 4450.9L1109.74 4450.92L1109.65 4450.95ZM1234.87 4477.7L1234.9399999999998 4477.69L1234.9199999999998 4477.71L1234.85 4477.72ZM1352.62 4625.14L1355.03 4625.54C1355.68 4625.46 1356.34 4625.28 1356.8799999999999 4624.98C1358.12 4624.3099999999995 1358.26 4623.37 1357.27 4622.839999999999C1356.23 4622.299999999999 1354.44 4622.36 1353.2 4623.0199999999995C1352.06 4623.639999999999 1351.8300000000002 4624.5599999999995 1352.6200000000001 4625.139999999999Z " fill="#d75813" transform="matrix(1,0,0,1,-1045,-4114)"></path></svg>