<svg id="SvgjsSvg1007" xmlns="http://www.w3.org/2000/svg" version="1.1" xmlns:xlink="http://www.w3.org/1999/xlink" xmlns:svgjs="http://svgjs.com/svgjs" width="49" height="48"><defs id="SvgjsDefs1008"></defs><path id="SvgjsPath1009" d="M1617.34 2286.34L1615.9299999999998 2287.76L1620.1699999999998 2292L1615.9299999999998 2296.24L1617.34 2297.66L1623 2292ZM1642.47 2292C1642.47 2278.74 1631.72 2268 1618.47 2268C1605.21 2268 1594.47 2278.74 1594.47 2292C1594.47 2305.25 1605.21 2316 1618.47 2316C1631.72 2316 1642.47 2305.25 1642.47 2292ZM1641.47 2292C1641.47 2304.7 1631.17 2315 1618.47 2315C1605.77 2315 1595.47 2304.7 1595.47 2292C1595.47 2279.3 1605.77 2269 1618.47 2269C1631.17 2269 1641.47 2279.3 1641.47 2292Z " fill="#67b8ef" transform="matrix(1,0,0,1,-1594,-2268)"></path></svg>