<?xml version="1.0" encoding="utf-8"?>
<!-- Generator: Avocode 0.4.0 - http://avocode.com -->
<svg height="50" width="243" xmlns:xlink="http://www.w3.org/1999/xlink" xmlns="http://www.w3.org/2000/svg" viewBox="0 0 243 50">
    <path fill="#ffffff" fill-rule="evenodd" d="M 240.83 29.82 C 240.28 30.52 239.6 31.06 238.79 31.46 C 237.97 31.86 237.01 32.06 235.9 32.06 C 235.38 32.06 234.85 31.99 234.33 31.86 C 233.8 31.73 233.31 31.54 232.86 31.28 C 232.41 31.02 232.01 30.7 231.67 30.31 C 231.32 29.92 231.05 29.46 230.86 28.95 L 230.81 28.95 Z L 230.81 36.95 Z L 229.03 36.95 Z L 229.03 17.32 Z L 230.67 17.32 Z L 230.67 20.05 Z L 230.72 20.05 Z C 231.14 19.05 231.81 18.27 232.73 17.73 C 233.66 17.18 234.72 16.91 235.9 16.91 C 237.01 16.91 237.97 17.11 238.79 17.52 C 239.6 17.93 240.28 18.48 240.83 19.17 C 241.37 19.87 241.78 20.67 242.04 21.59 C 242.3 22.51 242.43 23.48 242.43 24.49 C 242.43 25.52 242.3 26.49 242.04 27.4 C 241.78 28.32 241.37 29.13 240.83 29.82 Z M 240.39 22.29 C 240.21 21.55 239.93 20.9 239.55 20.33 C 239.16 19.75 238.67 19.28 238.07 18.92 C 237.47 18.56 236.75 18.38 235.9 18.38 C 234.93 18.38 234.11 18.55 233.45 18.88 C 232.8 19.22 232.27 19.66 231.88 20.22 C 231.48 20.77 231.21 21.42 231.05 22.16 C 230.89 22.9 230.81 23.68 230.81 24.49 C 230.81 25.24 230.9 25.97 231.07 26.71 C 231.25 27.44 231.54 28.09 231.95 28.67 C 232.35 29.24 232.88 29.71 233.52 30.07 C 234.17 30.43 234.96 30.61 235.9 30.61 C 236.75 30.61 237.47 30.43 238.07 30.07 C 238.67 29.71 239.16 29.24 239.55 28.67 C 239.93 28.09 240.21 27.44 240.39 26.71 C 240.57 25.97 240.66 25.24 240.66 24.49 C 240.66 23.76 240.57 23.02 240.39 22.29 Z M 227.84 41.16 L 228.64 41.16 Z L 228.64 47.62 Z L 227.84 47.62 Z L 227.84 41.16 Z Z M 227.84 38.68 L 228.64 38.68 Z L 228.64 39.94 Z L 227.84 39.94 Z L 227.84 38.68 Z Z M 225.24 38.68 L 226.04 38.68 Z L 226.04 47.62 Z L 225.24 47.62 Z L 225.24 38.68 Z Z M 224.05 29.08 L 224 29.08 Z C 223.52 30.05 222.84 30.78 221.95 31.29 C 221.06 31.8 220.07 32.06 218.98 32.06 C 218.06 32.06 217.28 31.93 216.63 31.68 C 215.99 31.43 215.46 31.07 215.06 30.61 C 214.65 30.15 214.36 29.59 214.17 28.92 C 213.98 28.25 213.89 27.49 213.89 26.64 L 213.89 17.33 Z L 215.66 17.33 Z L 215.66 26.66 Z C 215.7 27.96 216 28.94 216.58 29.61 C 217.15 30.28 218.14 30.61 219.55 30.61 C 220.32 30.61 220.97 30.45 221.52 30.13 C 222.06 29.8 222.51 29.37 222.87 28.83 C 223.22 28.3 223.49 27.68 223.66 26.98 C 223.82 26.29 223.91 25.58 223.91 24.86 L 223.91 17.33 Z L 225.68 17.33 Z L 225.68 31.67 Z L 224.05 31.67 Z L 224.05 29.08 Z Z M 212.44 47.81 C 209.58 47.81 208.16 45.59 208.16 43.15 C 208.16 40.71 209.58 38.49 212.44 38.49 C 215.28 38.49 216.7 40.71 216.7 43.15 C 216.7 45.59 215.28 47.81 212.44 47.81 Z M 212.44 39.22 C 210.04 39.22 209.02 41.2 209.02 43.15 C 209.02 45.11 210.04 47.08 212.44 47.08 C 214.82 47.08 215.83 45.11 215.83 43.15 C 215.83 41.2 214.82 39.22 212.44 39.22 Z M 209.5 29.83 C 208.92 30.52 208.2 31.06 207.34 31.46 C 206.49 31.86 205.51 32.06 204.4 32.06 C 203.29 32.06 202.31 31.86 201.46 31.46 C 200.6 31.06 199.89 30.52 199.31 29.83 C 198.72 29.15 198.28 28.35 197.98 27.43 C 197.68 26.51 197.53 25.53 197.53 24.5 C 197.53 23.46 197.68 22.48 197.98 21.56 C 198.28 20.65 198.72 19.85 199.31 19.16 C 199.89 18.48 200.6 17.93 201.46 17.52 C 202.31 17.11 203.29 16.91 204.4 16.91 C 205.51 16.91 206.49 17.11 207.34 17.52 C 208.2 17.93 208.92 18.48 209.5 19.16 C 210.08 19.85 210.52 20.65 210.82 21.56 C 211.12 22.48 211.27 23.46 211.27 24.5 C 211.27 25.53 211.12 26.51 210.82 27.43 C 210.52 28.35 210.08 29.15 209.5 29.83 Z M 209.17 22.26 C 208.96 21.53 208.64 20.88 208.21 20.3 C 207.79 19.73 207.26 19.26 206.63 18.91 C 205.99 18.56 205.25 18.38 204.4 18.38 C 203.56 18.38 202.82 18.56 202.18 18.91 C 201.54 19.26 201.01 19.73 200.59 20.3 C 200.16 20.88 199.84 21.53 199.63 22.26 C 199.41 22.99 199.31 23.74 199.31 24.5 C 199.31 25.26 199.41 26 199.63 26.74 C 199.84 27.47 200.16 28.12 200.59 28.69 C 201.01 29.27 201.54 29.73 202.18 30.08 C 202.82 30.44 203.56 30.61 204.4 30.61 C 205.25 30.61 205.99 30.44 206.63 30.08 C 207.26 29.73 207.79 29.27 208.21 28.69 C 208.64 28.12 208.96 27.47 209.17 26.74 C 209.39 26 209.5 25.26 209.5 24.5 C 209.5 23.74 209.39 22.99 209.17 22.26 Z M 194.89 19.2 C 194.23 19.45 193.66 19.81 193.18 20.27 C 192.7 20.74 192.33 21.29 192.07 21.92 C 191.81 22.56 191.68 23.26 191.68 24.03 L 191.68 31.67 Z L 189.9 31.67 Z L 189.9 17.33 Z L 191.54 17.33 Z L 191.54 20.69 Z L 191.59 20.69 Z C 192.04 19.52 192.74 18.62 193.69 17.99 C 194.64 17.36 195.77 17.07 197.08 17.13 L 197.08 18.88 Z C 196.27 18.84 195.54 18.95 194.89 19.2 Z M 192.5 44.6 L 187.47 44.6 Z C 187.48 45.76 188.09 47.15 189.63 47.15 C 190.79 47.15 191.43 46.47 191.68 45.49 L 192.48 45.49 Z C 192.14 46.96 191.27 47.81 189.63 47.81 C 187.55 47.81 186.67 46.23 186.67 44.39 C 186.67 42.69 187.55 40.97 189.63 40.97 C 191.73 40.97 192.57 42.79 192.5 44.6 Z M 189.63 41.64 C 188.32 41.64 187.6 42.76 187.47 43.94 L 191.71 43.94 Z C 191.67 42.75 190.92 41.64 189.63 41.64 Z M 184.92 28.05 L 184.87 28.05 Z C 184.53 28.76 184.11 29.37 183.61 29.88 C 183.11 30.38 182.57 30.8 181.96 31.13 C 181.36 31.45 180.72 31.69 180.04 31.84 C 179.35 31.98 178.64 32.06 177.91 32.06 C 176.33 32.06 174.95 31.77 173.76 31.21 C 172.57 30.64 171.58 29.89 170.79 28.94 C 170 28 169.41 26.91 169.02 25.66 C 168.62 24.42 168.42 23.12 168.42 21.74 C 168.42 20.37 168.62 19.07 169.02 17.83 C 169.41 16.58 170 15.49 170.79 14.53 C 171.58 13.58 172.57 12.82 173.76 12.25 C 174.95 11.69 176.33 11.4 177.91 11.4 C 178.96 11.4 179.96 11.54 180.9 11.82 C 181.83 12.1 182.67 12.52 183.4 13.07 C 184.13 13.63 184.75 14.31 185.26 15.13 C 185.77 15.95 186.11 16.9 186.3 17.99 L 184.39 17.99 Z C 184.33 17.42 184.14 16.84 183.81 16.26 C 183.48 15.67 183.04 15.14 182.49 14.66 C 181.93 14.18 181.27 13.78 180.5 13.48 C 179.73 13.17 178.87 13.02 177.91 13.02 C 176.58 13.02 175.43 13.27 174.48 13.77 C 173.52 14.27 172.74 14.93 172.13 15.75 C 171.52 16.58 171.06 17.51 170.77 18.55 C 170.48 19.59 170.34 20.65 170.34 21.74 C 170.34 22.82 170.48 23.88 170.77 24.93 C 171.06 25.98 171.52 26.91 172.13 27.73 C 172.74 28.56 173.52 29.22 174.48 29.72 C 175.43 30.22 176.58 30.47 177.91 30.47 C 179.02 30.47 180.01 30.29 180.88 29.93 C 181.75 29.57 182.49 29.07 183.09 28.42 C 183.69 27.77 184.14 27 184.44 26.11 C 184.74 25.22 184.88 24.25 184.87 23.19 L 178.02 23.19 Z L 178.02 21.58 Z L 186.55 21.58 Z L 186.55 31.67 Z L 185.17 31.67 Z L 184.92 28.05 Z Z M 166.38 48.61 C 165.93 49.7 165.66 50.01 164.66 50.01 C 164.34 50 164.18 50 164.05 49.95 L 164.05 49.29 Z C 164.24 49.32 164.42 49.35 164.59 49.35 C 165.3 49.35 165.47 48.94 165.74 48.34 L 166.01 47.6 Z L 163.4 41.16 Z L 164.25 41.16 Z L 166.41 46.67 Z L 168.42 41.16 Z L 169.22 41.16 Z L 166.38 48.61 Z Z M 164.4 31.68 L 161.51 31.68 Z L 161.51 20.57 Z L 161.47 18.77 Z L 161.47 18.79 Z L 161.42 18.78 Z L 156.4 30.1 Z C 155.68 31.5 155.97 31.7 154.49 31.68 L 154.36 31.68 Z L 154.34 31.68 Z L 154.34 31.68 Z L 154.33 31.68 Z L 154.32 31.68 Z L 154.18 31.68 Z C 152.7 31.7 152.99 31.5 152.27 30.1 L 147.25 18.78 Z L 147.21 18.79 Z L 147.21 18.77 Z L 147.16 20.57 Z L 147.16 31.68 Z L 144.27 31.68 Z C 142.64 31.68 142.68 31.84 142.68 30.09 L 142.68 12.52 Z C 142.7 11.96 143.08 11.8 143.62 11.83 L 147.37 11.83 Z C 148.22 11.86 148.8 12.27 149.12 13.06 L 151.36 18.01 Z L 154.26 24.36 Z L 154.32 24.36 Z L 154.33 24.36 Z L 154.34 24.36 Z L 154.34 24.36 Z L 154.36 24.36 Z L 154.41 24.36 Z L 157.32 18.01 Z L 159.56 13.06 Z C 159.87 12.27 160.46 11.86 161.31 11.83 L 165.05 11.83 Z C 165.6 11.8 165.98 11.96 165.99 12.52 L 165.99 30.09 Z C 165.99 31.84 166.04 31.68 164.4 31.68 Z M 143.69 44.6 L 138.66 44.6 Z C 138.67 45.76 139.28 47.15 140.82 47.15 C 141.98 47.15 142.62 46.47 142.87 45.49 L 143.67 45.49 Z C 143.32 46.96 142.46 47.81 140.82 47.81 C 138.73 47.81 137.86 46.23 137.86 44.39 C 137.86 42.69 138.73 40.97 140.82 40.97 C 142.92 40.97 143.76 42.79 143.69 44.6 Z M 140.82 41.64 C 139.51 41.64 138.79 42.76 138.66 43.94 L 142.89 43.94 Z C 142.86 42.75 142.11 41.64 140.82 41.64 Z M 129.54 20.64 L 136.88 20.64 Z L 136.88 24.24 Z L 129.54 24.24 Z L 129.54 31.68 Z L 125.69 31.68 Z C 125.39 31.6 125.2 31.43 125.22 31.06 L 125.2 13.6 Z L 125.2 12.76 Z C 125.29 12.17 125.69 11.84 126.49 11.84 L 126.98 11.83 Z L 138.87 11.83 Z C 139.25 11.81 139.44 11.99 139.44 12.35 L 139.44 15.19 Z L 129.54 15.19 Z L 129.54 20.64 Z Z M 125.57 39.94 L 124.77 39.94 Z L 124.77 38.68 Z L 125.57 38.68 Z L 125.57 39.94 Z Z M 121.21 46.24 L 121.21 41.82 Z L 120.07 41.82 Z L 120.07 41.16 Z L 121.21 41.16 Z L 121.21 39.22 Z L 122.01 39.22 Z L 122.01 41.16 Z L 123.35 41.16 Z L 123.35 41.82 Z L 122.01 41.82 Z L 122.01 46.18 Z C 122.01 46.69 122.09 47 122.66 47.03 C 122.89 47.03 123.12 47.02 123.35 47 L 123.35 47.67 Z C 123.11 47.67 122.88 47.7 122.64 47.7 C 121.57 47.7 121.2 47.35 121.21 46.24 Z M 120.29 31.68 L 117.4 31.68 Z L 117.4 20.57 Z L 117.35 18.77 Z L 117.35 18.79 Z L 117.3 18.78 Z L 112.28 30.1 Z C 111.57 31.5 111.85 31.7 110.37 31.68 L 110.24 31.68 Z L 110.23 31.68 Z L 110.22 31.68 Z L 110.21 31.68 Z L 110.2 31.68 Z L 110.06 31.68 Z C 108.58 31.7 108.87 31.5 108.15 30.1 L 103.13 18.78 Z L 103.09 18.79 Z L 103.09 18.77 Z L 103.04 20.57 Z L 103.04 31.68 Z L 100.15 31.68 Z C 98.52 31.68 98.56 31.84 98.56 30.09 L 98.56 12.52 Z C 98.57 11.96 98.96 11.8 99.5 11.83 L 103.25 11.83 Z C 104.1 11.86 104.68 12.27 105 13.06 L 107.24 18.01 Z L 110.14 24.36 Z L 110.2 24.36 Z L 110.21 24.36 Z L 110.22 24.36 Z L 110.23 24.36 Z L 110.24 24.36 Z L 110.29 24.36 Z L 113.2 18.01 Z L 115.44 13.06 Z C 115.75 12.27 116.34 11.86 117.19 11.83 L 120.93 11.83 Z C 121.48 11.8 121.86 11.96 121.87 12.52 L 121.87 30.09 Z C 121.87 31.84 121.92 31.68 120.29 31.68 Z M 103.06 38.68 L 106.61 47.62 Z L 105.68 47.62 Z L 104.58 44.84 Z L 100.46 44.84 Z L 99.37 47.62 Z L 98.44 47.62 Z L 102.09 38.68 Z L 103.06 38.68 Z Z M 104.29 44.11 L 102.54 39.53 Z L 100.73 44.11 Z L 104.29 44.11 Z Z M 80.58 30.46 C 78 30.22 75.2 28.41 74.42 26.5 C 73.65 24.64 75.08 23.43 77.52 23.71 C 79.95 23.99 82.56 25.63 83.45 27.45 C 84.38 29.31 83.13 30.69 80.58 30.46 Z M 72.1 18.21 C 69.56 17.87 66.94 16.24 66.32 14.62 C 65.72 13.06 67.25 12.13 69.65 12.49 C 72.04 12.85 74.49 14.35 75.21 15.88 C 75.95 17.47 74.59 18.54 72.1 18.21 Z M 61.37 19.32 C 60.09 19.16 58.84 18.37 58.61 17.56 C 58.38 16.77 59.21 16.26 60.45 16.42 C 61.69 16.59 62.89 17.35 63.16 18.14 C 63.43 18.94 62.64 19.48 61.37 19.32 Z M 56.38 9.93 C 53.55 9.5 50.89 7.85 50.51 6.31 C 50.13 4.82 52.07 4.03 54.72 4.47 C 57.37 4.91 59.86 6.42 60.38 7.88 C 60.92 9.41 59.15 10.35 56.38 9.93 Z M 53.8 13.51 C 54.02 14.34 53.05 14.88 51.61 14.69 C 50.15 14.5 48.83 13.64 48.65 12.8 C 48.48 11.98 49.5 11.48 50.91 11.67 C 52.31 11.88 53.59 12.69 53.8 13.51 Z M 38.72 31.54 C 36.07 31.35 33.86 29.77 33.83 28.05 C 33.79 26.4 35.85 25.28 38.33 25.5 C 40.81 25.72 42.91 27.18 43.08 28.81 C 43.26 30.48 41.32 31.73 38.72 31.54 Z M 38.84 10.55 C 40.52 10.78 41.93 11.7 42.05 12.62 C 42.18 13.57 40.9 14.18 39.18 13.96 C 37.43 13.74 35.94 12.76 35.89 11.8 C 35.83 10.87 37.17 10.32 38.84 10.55 Z M 36.73 6.08 C 33.27 5.55 30.39 3.71 30.37 2.05 C 30.34 0.44 33.02 -0.36 36.2 0.19 C 39.38 0.73 42.05 2.39 42.31 3.97 C 42.57 5.61 40.1 6.59 36.73 6.08 Z M 31.91 16.09 C 34.05 16.34 35.78 17.51 35.85 18.74 C 35.91 20.01 34.19 20.88 31.97 20.65 C 29.71 20.42 27.9 19.15 27.93 17.87 C 27.97 16.62 29.77 15.84 31.91 16.09 Z M 36.72 41.41 C 36.97 45.95 31.93 49.8 25.21 49.69 C 18.19 49.58 12.88 45.28 13.53 40.44 C 14.11 35.96 19.8 32.92 25.8 33.31 C 31.8 33.7 36.48 37.2 36.72 41.41 Z M 16.22 10.57 C 11.68 9.99 8.37 7.72 8.92 5.58 C 9.45 3.55 13.32 2.5 17.39 3.11 C 21.47 3.72 24.5 5.74 24.37 7.72 C 24.24 9.8 20.64 11.12 16.22 10.57 Z M 11.51 16.13 C 16.71 16.68 20.42 19.34 20.11 22.24 C 19.76 25.32 14.97 27.62 9.23 27.19 C 3.28 26.75 -0.82 23.63 0.17 20.43 C 1.1 17.41 6.3 15.57 11.51 16.13 Z M 51.72 23.95 C 50.68 23.85 49.72 23.21 49.61 22.55 C 49.48 21.89 50.22 21.45 51.24 21.57 C 52.25 21.68 53.18 22.28 53.32 22.95 C 53.46 23.6 52.76 24.06 51.72 23.95 Z M 53.43 31.79 C 56.03 31.99 58.42 33.65 58.87 35.56 C 59.33 37.54 57.53 39.09 54.79 38.94 C 52.01 38.79 49.45 36.97 49.16 34.94 C 48.87 32.97 50.82 31.59 53.43 31.79 Z M 60.35 22.32 C 61.54 22.45 62.69 23.2 62.94 24.01 C 63.2 24.83 62.43 25.4 61.21 25.27 C 59.99 25.15 58.8 24.37 58.57 23.54 C 58.35 22.73 59.16 22.19 60.35 22.32 Z M 70.49 32.05 C 73.15 32.26 75.86 34.07 76.68 36.15 C 77.52 38.31 76.01 40.01 73.21 39.86 C 70.36 39.7 67.45 37.7 66.77 35.47 C 66.12 33.32 67.83 31.83 70.49 32.05 Z M 108.33 42.27 L 108.36 42.27 Z C 108.65 41.5 109.52 40.97 110.45 40.97 C 112.29 40.97 112.84 41.93 112.84 43.46 L 112.84 47.62 Z L 112.05 47.62 Z L 112.05 43.59 Z C 112.05 42.47 111.68 41.64 110.38 41.64 C 109.12 41.64 108.36 42.59 108.33 43.85 L 108.33 47.62 Z L 107.53 47.62 Z L 107.53 41.16 Z L 108.33 41.16 Z L 108.33 42.27 Z Z M 114.73 41.16 L 116.88 46.67 Z L 118.9 41.16 Z L 119.7 41.16 Z L 116.86 48.61 Z C 116.4 49.7 116.14 50.01 115.14 50.01 C 114.82 50 114.65 50 114.53 49.95 L 114.53 49.29 Z C 114.71 49.32 114.89 49.35 115.07 49.35 C 115.78 49.35 115.95 48.94 116.21 48.34 L 116.49 47.6 Z L 113.88 41.16 Z L 114.73 41.16 Z Z M 125.57 47.62 L 124.77 47.62 Z L 124.77 41.16 Z L 125.57 41.16 Z L 125.57 47.62 Z Z M 128.1 42.25 L 128.14 42.25 Z C 128.55 41.47 129.24 40.97 130.28 40.97 C 131.14 40.97 131.91 41.39 132.15 42.24 C 132.55 41.39 133.37 40.97 134.23 40.97 C 135.67 40.97 136.4 41.71 136.4 43.24 L 136.4 47.62 Z L 135.6 47.62 Z L 135.6 43.28 Z C 135.6 42.21 135.2 41.64 134.06 41.64 C 132.67 41.64 132.28 42.76 132.28 43.97 L 132.28 47.62 Z L 131.48 47.62 Z L 131.48 43.24 Z C 131.5 42.36 131.13 41.64 130.11 41.64 C 128.73 41.64 128.17 42.66 128.16 44.02 L 128.16 47.62 Z L 127.36 47.62 Z L 127.36 41.16 Z L 128.1 41.16 Z L 128.1 42.25 Z Z M 152.58 38.68 L 156.13 47.62 Z L 155.21 47.62 Z L 154.1 44.84 Z L 149.98 44.84 Z L 148.89 47.62 Z L 147.97 47.62 Z L 151.62 38.68 Z L 152.58 38.68 Z Z M 153.81 44.11 L 152.06 39.53 Z L 150.25 44.11 Z L 153.81 44.11 Z Z M 157.85 42.27 L 157.88 42.27 Z C 158.17 41.5 159.04 40.97 159.97 40.97 C 161.81 40.97 162.37 41.93 162.37 43.46 L 162.37 47.62 Z L 161.57 47.62 Z L 161.57 43.59 Z C 161.57 42.47 161.2 41.64 159.91 41.64 C 158.64 41.64 157.88 42.59 157.85 43.85 L 157.85 47.62 Z L 157.05 47.62 Z L 157.05 41.16 Z L 157.85 41.16 Z L 157.85 42.27 Z Z M 172.13 46.69 L 172.16 46.69 Z L 173.76 41.16 Z L 174.66 41.16 Z L 176.25 46.69 Z L 176.28 46.69 Z L 177.95 41.16 Z L 178.8 41.16 Z L 176.7 47.62 Z L 175.82 47.62 Z L 174.21 42.19 Z L 174.19 42.19 Z L 172.59 47.62 Z L 171.71 47.62 Z L 169.61 41.16 Z L 170.46 41.16 Z L 172.13 46.69 Z Z M 180.72 42.27 L 180.74 42.27 Z C 181.03 41.5 181.91 40.97 182.83 40.97 C 184.67 40.97 185.23 41.92 185.23 43.46 L 185.23 47.62 Z L 184.43 47.62 Z L 184.43 43.59 Z C 184.43 42.47 184.06 41.64 182.77 41.64 C 181.5 41.64 180.74 42.59 180.72 43.85 L 180.72 47.62 Z L 179.92 47.62 Z L 179.92 38.68 Z L 180.72 38.68 Z L 180.72 42.27 Z Z M 194.58 42.68 L 194.6 42.68 Z C 195.01 41.64 195.9 41.02 197.08 41.07 L 197.08 41.86 Z C 195.63 41.79 194.64 42.84 194.64 44.18 L 194.64 47.62 Z L 193.84 47.62 Z L 193.84 41.16 Z L 194.58 41.16 Z L 194.58 42.68 Z Z M 200.49 40.97 C 202.6 40.97 203.43 42.79 203.37 44.6 L 198.34 44.6 Z C 198.35 45.76 198.96 47.15 200.49 47.15 C 201.66 47.15 202.29 46.47 202.55 45.49 L 203.35 45.49 Z C 203 46.96 202.14 47.81 200.49 47.81 C 198.41 47.81 197.54 46.23 197.54 44.39 C 197.54 42.69 198.41 40.97 200.49 40.97 Z M 202.57 43.94 C 202.53 42.75 201.79 41.64 200.49 41.64 C 199.19 41.64 198.46 42.76 198.34 43.94 L 202.57 43.94 Z Z M 218.94 42.27 L 218.97 42.27 Z C 219.26 41.5 220.13 40.97 221.06 40.97 C 222.9 40.97 223.45 41.93 223.45 43.46 L 223.45 47.62 Z L 222.66 47.62 Z L 222.66 43.59 Z C 222.66 42.47 222.29 41.64 220.99 41.64 C 219.73 41.64 218.97 42.59 218.94 43.85 L 218.94 47.62 Z L 218.14 47.62 Z L 218.14 41.16 Z L 218.94 41.16 Z L 218.94 42.27 Z Z M 231.22 42.27 L 231.24 42.27 Z C 231.53 41.5 232.41 40.97 233.33 40.97 C 235.17 40.97 235.73 41.93 235.73 43.46 L 235.73 47.62 Z L 234.93 47.62 Z L 234.93 43.59 Z C 234.93 42.47 234.56 41.64 233.27 41.64 C 232 41.64 231.24 42.59 231.22 43.85 L 231.22 47.62 Z L 230.42 47.62 Z L 230.42 41.16 Z L 231.22 41.16 Z L 231.22 42.27 Z Z M 240.13 40.97 C 242.23 40.97 243.07 42.79 243.01 44.6 L 237.97 44.6 Z C 237.98 45.76 238.59 47.15 240.13 47.15 C 241.29 47.15 241.93 46.47 242.18 45.49 L 242.98 45.49 Z C 242.64 46.96 241.77 47.81 240.13 47.81 C 238.05 47.81 237.17 46.23 237.17 44.39 C 237.17 42.69 238.05 40.97 240.13 40.97 Z M 242.21 43.94 C 242.17 42.75 241.42 41.64 240.13 41.64 C 238.82 41.64 238.1 42.76 237.97 43.94 L 242.21 43.94 Z Z" />
</svg>